<?xml version="1.0" encoding="UTF-8"?>
<svg id="Capa_1" data-name="Capa 1" xmlns="http://www.w3.org/2000/svg" viewBox="0 0 955.05 983.33">
  <defs>
    <style>
      .cls-1 {
        fill: #2d4d35;
      }

      .cls-2 {
        fill: #74845f;
      }

      .cls-3 {
        fill: #627553;
      }

      .cls-4 {
        fill: #ad904e;
      }

      .cls-5 {
        fill: #eeeee9;
      }
    </style>
  </defs>
  <path class="cls-3" d="M784.9,530.81c-.22-1.96-1.53-5.14.84-6,.49,2.11.91,4.45-.84,6Z"/>
  <path class="cls-3" d="M783.79,536.82c-.13-1.66-1.23-4.5.97-5.02.27,1.87,1.34,4.42-.97,5.02Z"/>
  <g>
    <path class="cls-1" d="M210.2,85.95c-1.19,3.14-.35,6.6-.67,10.36-.22,2.59-4.25,3.8-3.46,6.51s1.68,5.58,4.26,7.09c-44.93,33.41-83.16,74.73-113.8,123.35l44.19-12.6c19.78-5.64,39.65-8.33,60.39-10.68,41.78-4.73,82.38-.02,123.37,7.91,5.7-16.7,11.75-31.33,18.03-45.85,6.77,10.34-1.42,10.23,4.08,19.28-3.43,1.69-5.1-1.42-8.33-2.99l-6.33,18.27,7.41,8.51c2.56-1.47,6.86-19.3,7.79-12.77l-5.63,19.09,28.18,8.87c-3.94,1.9-9.38-.1-13.54,3.13-2.91,2.26.17,6.81,1.61,8.98-6.22-2.35-14.3-1.3-21.8-4.78-12.12,44.71-18.19,89.73-18,135.17-3.23,4.17-2.13,10.14-3.92,14.91-3.05,8.12-10.86,13.5-14.96,20.52-38.08,23.51-71.85,53.46-103.26,87.48,21.3,23.97,43.78,45.07,69.42,63.25l34.04,24.13c4.42,5.89,11.35,10.28,14.15,18.06,2,5.56,2.58,12.41,6.06,17.17-1.61,44.4,6.39,89.07,18.91,132.51,40.93-10.1,78.61-23.91,114.42-42.95,2.65-1.41,4.85-2.42,5.98-4.45,3.19.23,6.25-1.5,9.15-2.03,4.07.12,10.68-.45,14.04-3.4.53.9,2.36.51,2.89,1.16,2.76,3.35,7.43,2.31,10.97,3.75,4.19,1.69,10.03,2.8,10.69,7.5-1.21-.15-3.03-.52,0,0,2.97-1.24,5.23.69,7.68,1.83-1.23,1.32-3.31,1.31-5.81,2.06.81,3.84,3.1,8.69,0,11.51-5.05-.43-8.75-4.39-14.02-6.19,22.57,35.34,38.62,73.88,35.56,116.61-1.79,25.05-7.43,48.44-18.39,70.84l-19.87,40.61c11.8-5.46,17.27-15.25,26.74-22,.36,1.32-.22,3.1,1.34,4.14,2.39-1.5,5.33-2.49,6.13-.72,2.95,6.54-11.15,10.15.2,11.93l-22.7,22.09c31.1-1.33,94.72-14.13,124.12-25.21,1.15.8,1.44-.31,2.02-.33,1.02-.04,1.81,1.68.49,1.33-.67-.18-30.14,10.45-34.57,11.78-7.97,2.4-41.24,7.57-40.04,11.82.24.85,2.29.88,3.41,2.94-5.54,2.33-10.86.68-18.01,1.6,1.48,3.93,4.49,7.12,6.96,10.11-16.67,2.1-33.66,8.46-50.44,5.3.05-.3-.02-1.73.01-2.61.02-.5-.85-1.51-1.52-.16-.37.75.27,2.09-.07,2.47-.75.43-1.82.85-2.7.96.76-1.02-.35-2.24-1.15-2.65-.91-.46-1.67-.02-2.25.74-.41.54-.89,1.14-.29,1.9-1.01.04-2.06-.51-3.06-.39-.52-1.65-2.13-2.26-4.48-3.55-1.24-.68-2.02,1.14-2.17,1.98-.1.58.28,1,.49,1.87-87.1,1.44-172.83-23.29-246.97-69.89-17.52-11.01-33-21.11-49.18-34.09-30.54-24.51-58.64-51.01-82.29-81.62-19.63-25.4-33.71-54.97-50.57-82.45l-1.89.03c1.51-2.4.12-5-1.08-7.76l-17.44-40.08c-1.88-4.33-3.17-10.06-5.82-13.69-1.12-9.03-4.33-17.75-7.63-26.14-.87-3.21-2.29-8.61-3.04-12.01C2.59,562.02-2.31,508.6,1.02,453.99c.75-12.22,4.3-24.4,3.89-36.67-.05-1.38.68-2.82.24-4.23,2.9-3.11,2.51-7.64,1.18-11.47,1.82-2.39,3.05-5.2,3.74-8.94,16.7-89.95,65.9-181.52,129.23-247.36,17.34-18.03,35.99-32.9,54.04-48.98,4.63-4.12,11.59-7.63,16.85-10.38ZM202.59,109.04c-.79-3.15-6.2-2.11-6.1-.17.14,2.78,6.6,2.16,6.1.17ZM231.34,283.62c32.44,19.97,54.45,48.55,70.83,82.07,1.1-45.8,6.76-87.58,18.24-131.6-74.14-14.88-119.39-10.53-191.16,8.13l-30,12.19,54.03,3.9c27.78,2,53.57,10.45,78.05,25.3ZM221.43,447.68c19.17-18.88,39.74-33.33,61.9-49.1-29.69,1.13-56.55-2.26-83.21-12.76-32.17-14.95-58.8-36.98-79.38-65.85-12.94-15.85-20.95-33.38-33.31-51.01,1.38,31.81,10.41,60.36,20.68,89.02,15.81,44.13,44.25,90.89,76.27,126.19l37.04-36.48ZM174.36,496.74c-54.11-61.21-90.98-132.95-104.81-214.73-24.27,46.35-38.36,96.17-44.28,148.19-11.6,101.93,3.6,191.91,49.31,285.33,9.32-79.18,49.24-157.06,99.78-218.78ZM134.24,287.97c.53-1.59-.98-2.28-1.38-2.58s-1.77-.41-2.19.78c-.26.74,3.8,1.12,3.57,1.81ZM293.38,382.33c-6.69-7.64-15.13-11.33-22.13-16.34-10.36-7.43-13.31-17.57-18.7-27.31-4.86-8.8-9.73-17.04-15.62-24.44,4.81,13.44,13.58,23.72,14.88,39.51-15.09-7.91-30.97-14.51-41.44-26.77-8.64-10.11-10.45-24.5-22.47-33.34-.61,2.92,15.66,23.27,10.96,27.04-3.22,2.58-52.96-29.45-62.79-32.06l58.98,38.58c-12.78,5.57-25.3-.13-38.65,1.76,29.61,8.36,38.62-3.31,64.11,12.3,9.71,5.95,19.22,11.17,28.51,19.19-13.85,4.6-26.59,3.57-39.56,2.58-4.59-.35-9.02-2.49-13.09-.02,6.53,2.2,12.38,3.06,18.8,3.29l44.77,1.63c12.69.46,21.77,11.53,33.42,14.41ZM235.92,312.23c0-.54-.44-.97-.97-.97s-.97.44-.97.97.44.97.97.97.97-.44.97-.97ZM155.15,327.57c0-.42-.34-.77-.77-.77s-.77.34-.77.77.34.77.77.77.77-.34.77-.77ZM12.17,452.81c-.05.05-4.27,9.37.45,11.19.05.48,3.73-16.2-.45-11.19ZM9.78,493.93c3.34-5.1,4.48-10.71.81-16.43-1.47,6.14-1.26,10.78-.81,16.43ZM177.27,621.58c17.74-12.2,37.01-19.33,57.25-23.42,17.58-3.55,34.2-2.54,52.81-3.55-38.66-26.78-69.55-51.81-102.8-86.48-27.05,34.93-50.24,70.4-66.15,110.34-13.98,35.08-24.11,69.65-26.38,108.25l21.62-36.65c15.94-27.02,37.01-50.17,63.67-68.5ZM11.67,512.15c-1.09-.23-2.62,0-2.29,1.73l3.31,17.19c2.51-1.44,4.21-17.82-1.02-18.91ZM18.58,557.12c-3.63-3.42-1.89-7.83-5.4-12.16-2.07,7.82-.75,15.98,4.27,21.9,1.48-3.54-2.37-5.95,1.13-9.74ZM19.28,575.2c-.63-.38-1.4-.69-2.7-.1,2.11,5.24.48,11.33,4.49,16.42,3.02,1.39-1.92-16.39-1.79-16.32ZM197.02,674.18c13.55-7.39-6.06,21.99-1.27,20.15,8.63-10.23,10.94-22.42,19.87-30.91,10.57-10.04,24.01-17.28,37.94-22.92-1.21,16.08-10.39,26.51-15.18,39.13,4.72-1.48,19.16-32.4,20.51-35.72,6.56-16.19,20.93-18,31.75-30.2-7.88,1.23-13.17,5.66-19.87,8.51-21.93,9.36-41.25,3.12-63.56,5.95,13.2,3.02,29.88.63,41.87,6.05-54.56,40.04-46.76,22.12-83.18,28.77-1.03.19-2.7-.29-3.03.44-.22.48,1.59,2.35,2.15,2.41,10.1-1.39,21.34-2.99,32.67,1.78l-60.91,39.51c20.61-9.05,39.7-21.75,60.24-32.96ZM208.27,721.76c-16.82,6.92-34.93,11.07-53.54,13.1l-47.64,5.19c15.08,6.14,30.12,10.26,46.36,13.02l25.24,4.3,2.53-.24c26.53,5.43,58.99,5.95,87.59,4.36,6.11-.34,52.28-5.11,52.76-7.45.19-.91-.75-1.49-.91-2.2-9.12-39.9-16.69-79.08-17.9-122.45-21.25,40.76-53.87,75.66-94.48,92.37ZM194.48,695.84c0-.54-.44-.97-.97-.97s-.97.44-.97.97.44.97.97.97.97-.44.97-.97ZM465.42,948.36l-24.06-54.76c-5.72-17.52-10.83-34.49-12.58-52.9-2.23-17.29-.95-33.91,4.18-50.61,3.91-25.45,15.57-47.12,29.26-69.36-27.25,14.77-53.65,26.09-82.42,34.48l-36.93,10.63c11.66,34.8,27.44,66.86,47.77,97.36,15.07,26.47,33.92,49.03,56.15,69.56,6.38,5.08,10.51,11.59,18.63,15.6ZM478.72,895.46l4.19-56.15c8.82,4.96,11.19,13.41,16.98,19.87-.41-9.05-15.65-25.45-17.29-34.36-3.01-16.36-1.26-33.09.76-51.06,15,13.29,21.62,30.39,28.98,47.29-.28-16.42-26.85-54.68-29.03-61.41-3.81-11.77-.83-23.95-4.02-36.08-5.56,19.37,1.42,29.88-9.76,48.13-10.77,17.57-22.11,35.55-25.31,56.09,9.17-19.12,14.26-39.18,31.44-52.73,4.96,71.65-4.53,42.42-23.96,95.73,7.72-10.41,11.42-24.46,23.88-32.12l3.15,56.8ZM416.6,926.88c-22.76-26.26-40.26-54.07-56.59-83.99-12.94-23.71-24.05-47.09-32.83-73.38-81.99,14.71-147.41,11.31-228.2-12.78,72.33,115.42,219.74,201.91,356.21,207.65-14.11-12.19-26.55-23.07-38.58-37.5ZM501.95,861.56c0-.42-.34-.77-.77-.77s-.77.34-.77.77.34.77.77.77.77-.34.77-.77ZM504.33,869.99c.78-3.48-.87-4.87-1.94-6.24-1,2.87,1.27,4.51,1.94,6.24ZM249.26,910.21c-3.02-2.69-4.71-4.54-7.19-2.29,1.87,2.63,5.41,4.71,7.19,2.29ZM270.54,922.45c-6.86-5.54-13.13-8.06-20.36-11.46-8.88-.45,24.71,17.05,20.36,11.46Z"/>
    <path class="cls-2" d="M528.06,65.6l-4.56.14c-.16-.53-1.16-.87-1.45-1.39.42-5.86-5.77-3.65-5.14-6.32.52-2.19.3-3.25,2.62-3.1,2.15.14,8.26,8.74,8.53,10.66Z"/>
    <path class="cls-2" d="M689.41,50.53c.97.54,2.09.77,2.68,1.82.33.59.44,2.12,1.53,2.72,12.85,7.13,25.53,13.9,37.61,22.51,7.83,5.58,16.05,9.83,23.52,16.17,2.42,2.06,5.35,3.33,7.97,3.06.6.48,1.28,1,1.73,1.67-.83,3.37,3.04,3.31,5.18,5.17,2.68,2.33,4.7,5.58,8.2,4.71.7.2,1.97,1.27,2.08,2.09.21,1.59.73,3.56,2.58,4.9,10.64,7.78,18.86,18.86,24.79,19.58,5.76,3.17,10.08,9.19,14.25,14.29-.3,3.98,4.39,8.15,7.39,8.64.66.11,1.78,1.33,1.66,1.99-.47,2.58,6.6,14.77,10.24,15.26,5.7,5.71,17.08,24.92,21.53,25.98.18.39.09.9.22,1.3.92,2.79,2.36,6.72,4.82,9.21,6.51,6.6,8.25,14.96,12.75,21.86,6.54,10.03,13.42,19.39,18.22,29.96l15.81,34.84c7.7,16.97,11.82,34.26,17.65,51.75,1.15,3.43,1.45,7.58,4.43,8.78.1.55.06,1.17.05,1.73-.07,11.65,4.85,22.86,6.3,35.1.31,2.61,2,4.29,3.96,4.69,6.02,31.27,9.44,63.43,8.25,95.26-5.17-2.26-2.42,8.44-4.19,20.2-.16,1.07.33,2.05.8,2.3.52.28,1.59.47,2.12.39,2.67,5.11-.76,10.5-.5,15.46-3.67-1.89-3.48,20.22-2.32,21.49-.06,1.03-.18,2.05-.36,3.07-3.64,1.33-1.63,6.2-1.28,9.21l-.23,1.53c-3.37.78-1.69,5.14-1.49,7.7.04.45.23.99.17,1.44-.78-3.51-5.43,12.73-5.92,14.17-.85,2.52-5.12.19-6.48,1.41-8.35,7.46-6.13,18.66.12,26.92,1.56,2.06-.92,8.57-3.37,9.17-1.94.47-3.99-1.18-5.18-.74-7.02,2.59.56,11.79-3.47,15.74-1.09,1.06-3.55.66-4.45,1.18-1.83,1.04-.59,3.66-1.63,5.25-1.02,1.56-2.8-.42-2.78-1.68.02-1.42,1.51-2.17,1.85-3.79l2.43-11.45c.34-1.61,2.16-2.75,1.58-4.36-.47-1.3-2.02-2.33-3.55-2.74,30.78-113.56,19.41-241.95-31.91-348.86-8.36,81.91-50.27,158.36-102.29,218.02,49.72,59.39,90.06,140.29,100.45,215.31-1.89,3.65-3.81,6.62-7.01,10.65-3.96,4.99-2.73,14.01-9.45,17.13-1.63-4.97-.09-11.54-2.63-15.47.81-5.33-.1-10.72-1.09-17.09-8.37-53.83-27.96-104.16-56.43-150.38-10.59-17.2-20.59-33.24-35.53-47.44-22.73,22.85-44.09,44.35-69.29,60.46-.94-1.25-6.39-8.1-6.39-8.99,0-5.51,7.44-3.49,7.73-9.97,19.01-17.67,39.72-32.98,57.82-54.14-35.09-39.01-62.91-62.57-107.06-91.91,26.54,65.01,27.75,117.64.5,180.1-2.14,1.49-3.86,6.08-8.32,5.74-3.8-2.26-2.6-8.48-7.02-10.28.36,5.58,3.66,8.2,3,12.52-.54,3.5-3.71,6.36-7.85,8.71,2.89,2.52,4.91.18,7.79-1.71-1.47,6.79-3.07,11.87-5.35,16.98-6.96,15.54-20.32,27.74-33.61,39.19-6.82,5.87-12.86,11.75-20.39,16.77-26.47,17.61-56,25.43-86.49,30.13-3.54-1.43-8.21-.39-10.97-3.75,7.15-11.22,39.49-47.62,49.87-54.34l20.41-13.21c4.3-2.78,12.25-3.08,15.06-7.41,3.41-5.26,6.61-4.63,11.54-5.58,14.92-2.89,28.93-8.73,43.75-12.68-1.74-4.89-5.15-2.01-6.94-2.94-1.24-.99-2.53-2.3-4.85-2.82-17.22-3.89-33.14-10.35-48.09-19.44-2.56-2.99-6.73-4.52-5.94-8.7l71.93,17.11c-12.63-17.45-26.51-31.34-40.03-46.58-3.29-3.71-7.72-7.32-7.3-12.62,20.89,8.16,34.31,24.07,49.97,39.24-6.69-29.39-11.89-55.94-10.92-84.37.74-21.8,7.86-41.24,10.95-64.55-15.28,15.43-28.85,31.4-49.95,37.95,2.92-9.52,9.97-14.61,15.7-21.03,10.28-11.52,19.78-22.6,29.76-35.34-26.23,2.57-46.24,11.09-70.48,12.88,2.99-12.8,46.72-23.28,59.48-25.71-36.84-8.99-71.26-25.98-100.01-51.19-8.21-7.2-13.54-15.65-21.39-21.87-2.63-2.09-2.2-6.64-4.31-9.57-3.68-5.11-8.07-9.23-9.72-14.93,3.6.77,7.01-3.81,11.04-3.35,33.67,3.78,28.05,10.67,30.1,10.94,1.37.18,2.67-.94,4.26-1.99,1.27-.83,2.24-.21,3.11.66.64.63.08,1.3-.49,1.31-1.12.02-2.29-.52-3.6,1.32,4.59,3.35,11.39.56,16.81,3.64,8.02,4.56,21.52,12.64,29.39,8.94.33.27,1.02.17,1.44.29,3.17,7.08,3.06.43,15.99,14.55-1.38-1.51,19.69,17.57,19.41,14.18,10.8,7.72,17.06,20.2,25.42,30.47.66,3.74-.68,8.1,4.17,11.74,4.33-4.84-.69-18.31,11.33-20.67,2.22-.44,2.74-2.32,3.87-4.52,9.63-18.76,20.97-36.26,36.2-50.82,44.64-44.99,102.41-53.46,165.04-53.55-33.51-17.05-68.96-24.25-106.26-28.21-39.69-4.21-78.17-.81-116.86,7.78,5.02,16.57,7.83,32.41,10.9,48.13-2.83,1.56-1.51,5.63-1.11,8.87l4.34,35.54c.52,4.24-1.29,8.17-2.7,10.95l3.14,5.24c1.69,2.81-3.18,3.53-5.72,5.13-3.14,1.99.85,6.52.17,8.96-1.23,4.37-1.48,7.42.09,11.52-4.52-.58-4.2-3.96-6.12-5.12-2.72-42.39-6.37-84.81-19.19-125.99l-38.99,11.1-10.29-5.55c6.09-10.2,19.97-11.56,31.1-12.5-4.43.38,13.16-6.43,12.95-5.86.22-.61-.06-1.82-.23-2.45-9.67-36.63-27.27-70.71-47.66-103.48-10.95-17.6-23.41-32.87-36.57-47.8.08-1.72.41-3.52.17-5.25,4.28-.14,8.87,3.89,13.69,3.77,5.91-.15,9.86,3.95,9.94,10.52.02,1.8-.24,5.79,1.28,6.42,5.06.15,7.21,2.17,10.01,5.26,3.08,3.42.78,6.15-.24,10.82-.66,3.02,7.26,4.02,9.62,1.78,2.8.25,4.03,2.77,5.77,5.34,21.94,32.44,38.16,70.36,50.59,107.77,82.53-16.36,152.54-13.14,231.55,17.36-17.87-29.47-36.99-56.35-60.76-79.38l-20.35-19.71c-52.4-43.71-98.98-71.33-163.72-94.35-1.07-5.82,6.67.92,8.94-8.33.54-2.21,1.86-4.37,3.21-4.85,2.11-.75,4.39-.3,6.46.84,9.03,5,19.68,6.11,28.26,11.71,2.99,1.95,4.09,3.64,8.47,4.03,8.04.72,18.8,11.11,18.64,5.94ZM788.91,132.7c0-.42-.34-.77-.77-.77s-.77.34-.77.77.34.77.77.77.77-.34.77-.77ZM790.2,134.39c.18,2.46,1.63,2.63,2.53,2.15.84-.45,1.19-1.42.78-2.29-.42-.88-1.72-1.7-3.31.13ZM800.07,139.23c-2.99-.42-3.09-2.6-5.13-2.58l3.16,5.34c2.62,2.11,4.51-.77,1.97-2.76ZM825.09,168.39l-9.01-10.85c-.22,5.57,4.74,9.14,9.01,10.85ZM839.27,187.62c-1.46-5.93-5.48-10.91-10.51-13.61,3.14,5.19,5.92,9.32,10.51,13.61ZM709.98,426.48c22.6,18.01,42.38,36.78,61.78,58.35,14.73-15.29,25.3-30.46,36.32-47.21,33.47-50.87,54.15-107.75,59.18-169.78-14.57,24.62-27.69,48.32-46.97,68.89-17.74,20.31-38.18,36.11-62.46,47.77-26.85,10.81-54.47,15.16-83.97,13.19l36.12,28.79ZM683.03,372.24c3.2,1.79,6.17-1.61,9.77-1.93,7.2-.63,14.45-.95,21.94-1.12,14.08-.32,28.69,2.7,41.94-2.5,1.9-.74,4.61-1.21,5.27-4.41-19.36,1.24-37.27,3.49-56.35-3.14,41.75-29.14,39.78-26.83,87.6-28.09,4.04-1.34,7.99-1.56,11.34-4.21-6.45-.1-44.03,6.08-44.82-1.45l62.96-39.74-62.31,33.67c-1.88,1.01-3.91,1.24-4.86-.1s-.61-3.56.21-5.29l9.91-21.05c-10.35,8.61-12.24,22.61-21.01,32.74-10.13,11.69-25.61,19.39-40.72,25.92-.74-16.07,9.94-26.36,14.21-40.97-10.81,12.45-15.14,27.99-23.28,41.99-6.63,11.4-18.74,16.76-29.1,24.95,7.06.55,11.41-4.16,17.31-5.28ZM767.43,290.75c0-.42-.34-.77-.77-.77s-.77.34-.77.77.34.77.77.77.77-.34.77-.77ZM719.85,309.16c0-.42-.34-.77-.77-.77s-.77.34-.77.77.34.77.77.77.77-.34.77-.77ZM934.71,399.89c.67-5.98,1.66-11.02-2.92-14.22-.92,5.53,1.33,10.06,2.92,14.22ZM940.16,432.86c.86-6.93,2.77-15.3-3.77-20.45,1.02,7.25.95,13.45,3.77,20.45ZM636.99,416.57c0-.42-.34-.77-.77-.77s-.77.34-.77.77.34.77.77.77.77-.34.77-.77ZM635.46,419.64c0-.42-.34-.77-.77-.77s-.77.34-.77.77.34.77.77.77.77-.34.77-.77ZM945.7,481.66c.61-4.21.08-9.47-2.99-12.47.41,9.12-.2,16.89,1.11,25.41l1.88-12.94ZM945.06,502.91c2.04-.85,1.09-3.85.24-4.57-.52-.44-2.19-.97-2.22-.16-.09,2.23.29,5.43,1.98,4.72ZM942.8,519.89c3.81-6.64,3.31-10.99-.08-15.29-.56,6.06-.67,10.56.08,15.29ZM635.46,570.01c0-.42-.34-.77-.77-.77s-.77.34-.77.77.34.77.77.77.77-.34.77-.77ZM637.96,577.69c0-.54-.44-.97-.97-.97s-.97.44-.97.97.44.97.97.97.97-.44.97-.97Z"/>
    <path class="cls-3" d="M702.85,550.82c-.29,6.48-7.73,4.47-7.73,9.97,0,.89,5.45,7.74,6.39,8.99-9.69,6.2-17.66,17.01-29.83,22.84,6.57,3.11,11.67,1.99,18.2,1.98,76.45-.19,127.95,46.28,162.84,110.07,3.86,7.06,7.18,13.47,11.12,19.56,2.55,3.93,1,10.5,2.63,15.47,6.72-3.12,5.48-12.14,9.45-17.13,3.21-4.03,5.12-7,7.01-10.65,13.9-26.78,25.8-55.17,33.74-84.47,1.53.41,3.08,1.44,3.55,2.74.58,1.61-1.24,2.75-1.58,4.36l-2.43,11.45c-.34,1.62-1.83,2.37-1.85,3.79-.02,1.26,1.76,3.24,2.78,1.68,1.04-1.59-.2-4.2,1.63-5.25.9-.51,3.37-.11,4.45-1.18,4.03-3.95-3.55-13.15,3.47-15.74,1.19-.44,3.24,1.21,5.18.74,2.45-.6,4.93-7.1,3.37-9.17-6.25-8.25-8.47-19.45-.12-26.92,1.37-1.22,5.63,1.1,6.48-1.41.49-1.44,5.14-17.69,5.92-14.17-9.15,71.76-39.04,136.87-79.63,197.44-35.96,53.67-81.7,97.7-136.4,132.09-32.32,20.32-64.9,36.96-101.11,48.97-27.66,9.17-54.56,16.74-82.61,20.29-2.47-2.99-5.47-6.18-6.96-10.11,7.15-.91,12.47.74,18.01-1.6-1.12-2.07-3.17-2.1-3.41-2.94-1.2-4.25,32.06-9.43,40.04-11.82,4.43-1.33,33.9-11.96,34.57-11.78,1.31.35.53-1.37-.49-1.33-.58.02-.87,1.14-2.02.33,43.41-16.36,83.52-38.34,121.24-66.79,42.08-31.21,77.14-68.63,107.57-114.78-80.93,24.37-144.07,26.94-226.61,11.97-19.52,60.62-57.34,129.63-103.61,172.72-11.35-1.78,2.75-5.39-.2-11.93-.8-1.77-3.73-.78-6.13.72-1.56-1.04-.98-2.81-1.34-4.14,25.45-26.29,47.51-55.18,64.49-88.41,11.99-23.46,23.04-45.96,30.5-72.24-29.07-7.7-56.43-17.4-83.85-28.61-7.53-3.08-14.57-5.68-21.17-10.61,3.11-2.82.82-7.67,0-11.51,2.5-.75,4.58-.74,5.81-2.06,33.21,15.43,67.81,28.41,104.06,37.72,12.14-43.85,17.62-86.14,19.4-129.71.05-1.27.89-2,.43-2.79s-.83-1.22-1.77-.63c2.29-5.11,3.88-10.19,5.35-16.98-2.88,1.89-4.9,4.23-7.79,1.71,4.15-2.36,7.32-5.21,7.85-8.71.66-4.32-2.64-6.94-3-12.52,4.43,1.8,3.22,8.02,7.02,10.28,4.46.34,6.18-4.24,8.32-5.74l48.73-34.05ZM693.77,563.88c0-.42-.34-.77-.77-.77s-.77.34-.77.77.34.77.77.77.77-.34.77-.77ZM772.06,665.63c-.69,1.35-2.08,1.72-4.42,2.23,1.06,3.08,3.97,3.53,6,3.33,4.07-.4,6.49-1.72,6.01-5.59,1.93.44,4.23-.73,6.19.32-.17,1.47-.59,3.31.75,4.88,1.16,1.35,11.7.42,11.52-3.34.97-.05,1.77.13,2.36-.01.63-.15,1.44-2.45.37-2.65-14.1-2.65-28.08-3.1-42.67-2.93-4.06.05-7.26-1.39-9.17-3.61,7.18-.64,19.19,3,28.96.95,7.22-1.51,8.94-10.23,6.56-16.24-1.84-4.65-1.32-7.97,1.39-12.14-15.11-1.2-10.31,26.88-26.62,13.48-1.3-1.07-3.18.99-2.74,2.3.3.89,1.19,2.67,1.12,4.12-.25,4.74-5.09,5.66-8.67,7.53-2.84,4.18-36.52-19.39-41.84-25.16,15.9-5.3,31.68-2.6,46.52-1.11-.58,1.36-2.11,1.41-3.21,2.82l6.12,1.25c2.86.59,5.38-3.04,9.49-2.23-.42-4.16-3.07-2.74-4.8-3.19-8.91-2.32-17.67-3.58-27.65-3.27-7.15.22-14.12-1.15-21.38-.48-24.06,2.23-31.96-11.32-49.7-15l27.7,20.71c8.66,6.48,16.68,35.91,24.97,41.69-4.01-11.88-11.49-20.62-10.6-33.62,49.9,26.34,36.95,26.08,61.11,60.76,2.72,3.91,3.3,11.11,10.23,10.27-9.44-12.18-18.7-23.17-20.6-39.19l64.15,34.9-59.3-39.44c3.88-4.22,8.32-1.73,11.84-2.32ZM846.4,739.92c-85.72-3.55-156.14-32.57-192.94-112.43-2.11,37.08-5.69,71.98-14.41,106.68-1.57,6.25-3.29,12.21-3.72,19,69.71,12.48,144.56,10.82,211.07-13.26ZM793.51,660.55c0-.42-.34-.77-.77-.77s-.77.34-.77.77.34.77.77.77.77-.34.77-.77ZM718.11,676.66c0-.73-.59-1.32-1.32-1.32s-1.32.59-1.32,1.32.59,1.32,1.32,1.32,1.32-.59,1.32-1.32ZM719.85,680.49c0-.42-.34-.77-.77-.77s-.77.34-.77.77.34.77.77.77.77-.34.77-.77ZM865.65,741.9c-.4-.82-1.2-1.02-2.28-.83,2.28-.4-4.79,3.44-3.89,5.38.39.84,1.34,1.11,2.28.82-2.72.84,4.8-3.48,3.88-5.37ZM850.3,749.59c-1-1.97.63-3.57.55-4.07.1.66-3.26-1.62-2.54,1.71-1.99,2.62-.22,4.34,1.99,2.36ZM857.96,755.68c0-.42-.34-.77-.77-.77s-.77.34-.77.77.34.77.77.77.77-.34.77-.77Z"/>
    <path class="cls-3" d="M871.82,211.71c.03,2.46,3.24,4.43,4.18,6.19,12.67,23.97,27.2,46.81,37.74,72.68,9.28,22.77,18.23,44.84,22.51,68.24-2.98-1.21-3.29-5.35-4.43-8.78-5.83-17.49-9.96-34.78-17.65-51.75l-15.81-34.84c-4.8-10.57-11.67-19.93-18.22-29.96-4.5-6.9-6.24-15.26-12.75-21.86-2.46-2.49-3.91-6.42-4.82-9.21,4.35,1.55,5.52,6.92,9.25,9.3Z"/>
    <path class="cls-3" d="M946.56,400.33c-1.96-.4-3.65-2.08-3.96-4.69-1.45-12.24-6.36-23.45-6.3-35.1,4.09,4.4,8.89,32.7,10.25,39.78Z"/>
    <path class="cls-3" d="M954.81,495.59c-.41,11.03,1.17,12.68-1.26,22.9-.53.07-1.6-.11-2.12-.39-.47-.25-.96-1.23-.8-2.3,1.77-11.76-.99-22.46,4.19-20.2Z"/>
    <path class="cls-3" d="M950.73,555.44c-1.17-1.27-1.36-23.38,2.32-21.49.03.62-.46,23.21-2.32,21.49Z"/>
    <path class="cls-3" d="M491.34.02c2-.03,3.98.54,6.01.1.89-.19,2.18-.13,3.07.04,1.52.29,3.14-.3,4.62-.1l66.09,9.01c.87.12,2.22-.22,2.96.2,4.11,2.39,8.88,2.69,13.51,3.05,1.4.11,3.43.94,4.85,1.32,29.49,7.88,59.28,16.03,85.99,30.81l10.98,6.08c.16,5.17-10.59-5.22-18.64-5.94-4.37-.39-5.47-2.08-8.47-4.03-8.58-5.6-19.23-6.71-28.26-11.71-2.07-1.15-4.35-1.6-6.46-.84-1.35.48-2.67,2.64-3.21,4.85-2.28,9.26-10.02,2.51-8.94,8.33-36.97-9.55-73.61-18.96-114.27-19.6,10.79,7.37,17.91,17.58,27.16,25.65-1.48.71-2.97-.08-4.1.32-1.38.49-1.42,2.67.71,3.28,1.32.38,1.37,1.53,1.64,2.05.69,1.34,2.6,1.14,3.02-.05.49-1.42-.95-2.29-1.26-5.61,15.39,13.43,28.46,29.52,40.02,47.7,1.75,2.75,4.61,5.02,4.01,9.22-2.36,2.24-10.28,1.24-9.62-1.78,1.02-4.68,3.32-7.4.24-10.82-2.79-3.09-4.95-5.11-10.01-5.26-1.52-.62-1.26-4.61-1.28-6.42-.08-6.58-4.03-10.67-9.94-10.52-4.82.12-9.4-3.91-13.69-3.77-.27-1.92-6.37-10.53-8.53-10.66-2.32-.15-2.1.91-2.62,3.1-.63,2.67,5.56.46,5.14,6.32-10.79-9.45-19.7-20.62-33.83-29.67,12.35,31.23,31.45,58.96,37.58,94.15,1.8,10.32,5.22,20.08,2.1,30.65,2.32,8.39,1.47,16.28.38,24.65-4,30.88-15.61,58.63-34.57,84.11,38.68-19.79,77.38-36.78,118.4-46.12.17.63.45,1.85.23,2.45.21-.57-17.38,6.23-12.95,5.86-11.13.94-25.01,2.3-31.1,12.5l10.29,5.55c-28.04,12.1-53.17,20.16-80.23,37.79,27.61,4.45,55.09,10.3,75.66,26.65-7.87,3.7-21.36-4.39-29.39-8.94-5.42-3.08-12.22-.28-16.81-3.64,1.31-1.85,2.48-1.3,3.6-1.32.57,0,1.12-.68.49-1.31-.87-.86-1.84-1.49-3.11-.66-1.59,1.04-2.89,2.16-4.26,1.99-2.05-.27,3.58-7.16-30.1-10.94-4.03-.45-7.44,4.13-11.04,3.35-2.97-2.71-6.77.21-10.56-.04-5.84-.39-11.53-5.56-17.09-4.87-1.05-3.57-6.44-3.41-8.66-6.01-6.97-8.17-75.69-32.97-89.34-38.13-1.44-2.17-4.52-6.72-1.61-8.98,4.15-3.23,9.6-1.22,13.54-3.13,30.44,7.77,58.16,21.22,88.4,35.83-17.42-25.04-27.59-49.75-31.39-78.96,1.29.24,1.66-1.38,1.6-3.04-.71-18.42-1.69-36.39,2.54-54.33.29-1.24.58-2.09.36-3-.19-.79-.61-1.37-1.67-1.01,5.31-19.39,9.63-38.77,19.86-57.41,6.25-11.39,11.55-22.6,17.63-35.17-45,27.52-106.34,123.2-119.88,169.13-.93-6.52-5.23,11.31-7.79,12.77l-7.41-8.51,6.33-18.27c3.23,1.57,4.9,4.68,8.33,2.99-5.5-9.05,2.7-8.94-4.08-19.28,23.23-53.64,62.36-111.55,107.63-150.47-14.22-1.78-57.71,8.06-63.55,7.36-2.53-.3-4.72-2.34-6.65-2.94-3.6-1.11-8.4.23-12.25-2.7-.76-.58-2.77,1.75-3.48,2.12s-2.09-1.38-3.24-1.6c-4.07,3.14-10.08,3.26-15.34,4.31-1.28.26-17.33,8.31-12.85,6.46-.67.28-1.78-.98-2.54-.8-1.1.26-1.79,1.65-2.71,2-.71.27-2.62-1.17-3.34-.81-2.35,2.3-5.5,3.57-9.09,3.77-.96.05-.67,4.06.7,3.82,1.05-.19,2.85-1.83,3.99-1.92,2.91-.23,4.97,4.19,7.21,5.74-42.47,12.43-80.89,36.94-116.68,63.54-2.58-1.51-3.43-4.26-4.26-7.09s3.24-3.92,3.46-6.51c.32-3.76-.52-7.22.67-10.36.85-1.74,3.5-2.91,5.16-3.55-1.56,3.43,31.03-17.01,25.58-16.42,20.39-13.85,43.04-23.71,66.66-33.18C370.36,7.63,425.41,1.12,491.34.02ZM354.64,23.75c0-.42-.34-.77-.77-.77s-.77.34-.77.77.34.77.77.77.77-.34.77-.77ZM468.19,31.43c0-.42-.34-.77-.77-.77s-.77.34-.77.77.34.77.77.77.77-.34.77-.77ZM488.14,32.96c0-.42-.34-.77-.77-.77s-.77.34-.77.77.34.77.77.77.77-.34.77-.77ZM323.06,46.62c-1.47-3.56-4.23-2.08-6-2.46-2.26-.48-4.36-.34-4.13,4.63l10.13-2.17ZM268.96,63.13c2.97-1.63.68-4.89-1.8-2.55-2.18,3.06-6.26,2.19-6.64,5.68l8.44-3.13ZM488.46,216.68c10.23-15.76,19.85-32.16,22.51-51.19-7.63,17.36-12.85,35.08-28.38,49.99-3.53-15.65-6.63-33.48-2.09-48.97,4.41-15.08,17.47-26.19,19.81-42.52-7.45,9.24-9.77,21.08-20.71,29.1-2.49-21.73-2.18-42.66-2.19-64.1,0-5.19.18-9.97-2.84-14.05l-.07,43.14c-.02,11.61-.31,23.12-2.41,34.7-8.94-6.48-10.14-16.07-16.58-22.99,1.17,13.95,12.62,22.74,16.36,35.28,4.83,16.21,2.03,35.03.71,52.01-12.28-6.34-13.96-17.92-23.37-26.1,3.4,14.84,15.76,24.48,21.75,37.87,5.73,12.82,2.68,27.52,5.78,41.31,4.63-21.44-2.64-31.36,11.72-53.48ZM216.31,90.5c0-.73-.59-1.32-1.32-1.32s-1.32.59-1.32,1.32.59,1.32,1.32,1.32,1.32-.59,1.32-1.32ZM502.16,121.19c0-.54-.44-.97-.97-.97s-.97.44-.97.97.44.97.97.97.97-.44.97-.97Z"/>
    <path class="cls-3" d="M528.06,65.6c.24,1.73-.08,3.53-.17,5.25-1.48-1.68-3.85-2.65-4.39-5.11l4.56-.14Z"/>
    <path class="cls-3" d="M726.18,67.32c.03,5.82,7.26,8.35,12.2,9.8.28,1.23,2.05,1.67,2.78,2.26l21.56,17.43c-2.62.27-5.54-1-7.97-3.06-7.46-6.34-15.69-10.58-23.52-16.17-12.07-8.61-24.75-15.37-37.61-22.51-1.09-.61-1.2-2.14-1.53-2.72,10.44,1.3,29.1,18.84,34.08,14.96Z"/>
    <path class="cls-3" d="M835.11,161.49c1.52,3.33,3,8.48,7.05,9.24-.15.65-.38,1.36.1,1.88s1.38.66,1.9.91c.12,5.9,8.43,7.34,10.21,12.22,2.03,5.57,5.51,9.93,7.98,15.36-4.45-1.06-15.83-20.27-21.53-25.98-3.64-.5-10.71-12.68-10.24-15.26,1.36.91,2.93,1.4,4.54,1.63Z"/>
    <path class="cls-3" d="M784.19,112.16c4.09,5.3,9.35,10.13,15.21,13.37,2.79,7,8.2,2.41,7.86,9.39-5.93-.72-14.14-11.8-24.79-19.58-1.85-1.35-2.37-3.32-2.58-4.9,1.41.64,2.83,1.23,4.3,1.72Z"/>
    <path class="cls-3" d="M828.76,154.97l.15,2.9c-3-.5-7.7-4.66-7.39-8.64,5.69-1.09,2.54,4.13,7.24,5.75Z"/>
    <path class="cls-3" d="M773.74,103.11l3.2-.3c-.99,1.86-.73,4.14.87,5.54-3.5.87-5.52-2.38-8.2-4.71-2.14-1.86-6-1.79-5.18-5.17l9.3,4.63Z"/>
    <path class="cls-4" d="M270.54,922.45c4.35,5.59-29.24-11.91-20.36-11.46,7.23,3.39,13.49,5.91,20.36,11.46Z"/>
    <path class="cls-5" d="M18.58,557.12c-3.49,3.79.35,6.2-1.13,9.74-5.02-5.92-6.34-14.08-4.27-21.9,3.51,4.33,1.76,8.74,5.4,12.16Z"/>
    <path class="cls-5" d="M11.67,512.15c5.23,1.09,3.53,17.48,1.02,18.91l-3.31-17.19c-.33-1.72,1.2-1.95,2.29-1.73Z"/>
    <path class="cls-5" d="M19.28,575.2c-.13-.08,4.81,17.7,1.79,16.32-4.01-5.08-2.39-11.17-4.49-16.42,1.3-.59,2.07-.27,2.7.1Z"/>
    <path class="cls-2" d="M12.17,452.81c4.18-5,.51,11.67.45,11.19-4.73-1.82-.5-11.14-.45-11.19Z"/>
    <path class="cls-5" d="M9.78,493.93c-.46-5.65-.66-10.29.81-16.43,3.67,5.72,2.54,11.33-.81,16.43Z"/>
    <path class="cls-4" d="M249.26,910.21c-1.79,2.42-5.32.34-7.19-2.29,2.49-2.25,4.17-.4,7.19,2.29Z"/>
    <path class="cls-3" d="M202.59,109.04c.5,1.99-5.96,2.61-6.1-.17-.1-1.94,5.32-2.98,6.1.17Z"/>
    <path class="cls-3" d="M506.55,710.41c-1.51-.26-1.81-.3-1.59-.25s.98.18,1.59.25Z"/>
    <circle class="cls-5" cx="193.51" cy="695.84" r=".97"/>
    <path class="cls-5" d="M504.33,869.99c-.67-1.73-2.94-3.36-1.94-6.24,1.08,1.37,2.72,2.76,1.94,6.24Z"/>
    <path class="cls-5" d="M134.24,287.97c.23-.69-3.83-1.06-3.57-1.81.42-1.19,1.78-1.08,2.19-.78s1.92,1,1.38,2.58Z"/>
    <circle class="cls-5" cx="234.94" cy="312.23" r=".97"/>
    <circle class="cls-5" cx="501.18" cy="861.56" r=".77"/>
    <circle class="cls-5" cx="154.38" cy="327.57" r=".77"/>
    <path class="cls-3" d="M651.79,363.49c-12.02,2.37-7,15.83-11.33,20.67-4.85-3.64-3.51-8-4.17-11.74-.54-3.03.68-6.05.49-9.03,1.92,1.16,1.6,4.54,6.12,5.12-1.58-4.11-1.32-7.15-.09-11.52.68-2.44-3.31-6.97-.17-8.96,2.54-1.6,7.41-2.32,5.72-5.13l-3.14-5.24c1.42-2.78,3.22-6.71,2.7-10.95l-4.34-35.54c-.4-3.24-1.72-7.32,1.11-8.87,5.2,26.63,7.27,53.98,7.1,81.19Z"/>
    <path class="cls-3" d="M756.68,366.7c-13.25,5.19-27.86,2.18-41.94,2.5-7.49.17-14.75.49-21.94,1.12-3.6.31-6.57,3.72-9.77,1.93,3.09-.59,6.63-5.32,11.04-5.36l53.14-.48c3.34-.03,7.72-3.38,9.48.29Z"/>
    <path class="cls-3" d="M610.86,341.95c.28,3.39-20.8-15.69-19.41-14.18-12.93-14.12-12.82-7.47-15.99-14.55,5.79,1.7,32.91,22,35.4,28.73Z"/>
    <path class="cls-4" d="M945.7,481.66l-1.88,12.94c-1.31-8.52-.69-16.29-1.11-25.41,3.07,3,3.6,8.26,2.99,12.47Z"/>
    <path class="cls-5" d="M934.71,399.89c-1.59-4.16-3.84-8.69-2.92-14.22,4.58,3.2,3.59,8.24,2.92,14.22Z"/>
    <path class="cls-5" d="M940.16,432.86c-2.82-7.01-2.75-13.2-3.77-20.45,6.54,5.16,4.63,13.52,3.77,20.45Z"/>
    <path class="cls-5" d="M825.09,168.39c-4.27-1.71-9.23-5.29-9.01-10.85l9.01,10.85Z"/>
    <path class="cls-4" d="M942.8,519.89c-.76-4.73-.65-9.23-.08-15.29,3.39,4.3,3.89,8.65.08,15.29Z"/>
    <path class="cls-5" d="M839.27,187.62c-4.59-4.28-7.38-8.41-10.51-13.61,5.04,2.69,9.06,7.67,10.51,13.61Z"/>
    <path class="cls-4" d="M945.06,502.91c-1.7.71-2.07-2.49-1.98-4.72.03-.81,1.7-.28,2.22.16.85.71,1.81,3.71-.24,4.57Z"/>
    <path class="cls-5" d="M800.07,139.23c2.54,1.99.65,4.87-1.97,2.76l-3.16-5.34c2.03-.01,2.14,2.16,5.13,2.58Z"/>
    <path class="cls-5" d="M790.2,134.39c1.59-1.83,2.89-1.02,3.31-.13.41.87.05,1.84-.78,2.29-.9.48-2.34.31-2.53-2.15Z"/>
    <circle class="cls-5" cx="766.66" cy="290.75" r=".77"/>
    <circle class="cls-5" cx="788.14" cy="132.7" r=".77"/>
    <circle class="cls-5" cx="719.09" cy="309.16" r=".77"/>
    <path class="cls-2" d="M749.01,658.24c3.58-1.87,8.42-2.79,8.67-7.53.08-1.45-.82-3.23-1.12-4.12-.44-1.31,1.43-3.37,2.74-2.3,16.31,13.4,11.51-14.67,26.62-13.48-2.71,4.17-3.23,7.49-1.39,12.14,2.38,6.01.66,14.73-6.56,16.24-9.78,2.04-21.79-1.6-28.96-.95Z"/>
    <path class="cls-2" d="M779.65,665.6c.48,3.87-1.94,5.19-6.01,5.59-2.03.2-4.94-.25-6-3.33,2.34-.51,3.73-.88,4.42-2.23,2.67-.45,4.91-.64,7.59-.03Z"/>
    <path class="cls-2" d="M788.91,665.92c1.46,2.65,5.13,1.34,7.67,1.53.51.04,1.03,0,1.53,0,.18,3.77-10.37,4.69-11.52,3.34-1.35-1.57-.92-3.41-.75-4.88.76.4,2.2-.09,3.07,0Z"/>
    <path class="cls-2" d="M753.69,631.97c2.44.25,6.19.93,7.59-1.35,1.73.45,4.38-.97,4.8,3.19-4.11-.81-6.62,2.82-9.49,2.23l-6.12-1.25c1.11-1.41,2.63-1.46,3.21-2.82Z"/>
    <path class="cls-2" d="M850.3,749.59c-2.21,1.97-3.98.26-1.99-2.36-.72-3.33,2.64-1.06,2.54-1.71.08.51-1.55,2.11-.55,4.07Z"/>
    <path class="cls-2" d="M865.65,741.9c.93,1.89-6.6,6.21-3.88,5.37-.95.29-1.89.03-2.28-.82-.9-1.94,6.16-5.78,3.89-5.38,1.07-.19,1.88.02,2.28.83Z"/>
    <circle class="cls-5" cx="719.09" cy="680.49" r=".77"/>
    <circle class="cls-5" cx="716.79" cy="676.66" r="1.32"/>
    <circle class="cls-2" cx="792.74" cy="660.55" r=".77"/>
    <circle class="cls-2" cx="693" cy="563.88" r=".77"/>
    <circle class="cls-5" cx="857.2" cy="755.68" r=".77"/>
    <path class="cls-2" d="M386.6,28.92l-59.59,17.45c-2.24-1.55-4.31-5.97-7.21-5.74-1.15.09-2.94,1.73-3.99,1.92-1.36.24-1.65-3.77-.7-3.82,3.59-.2,6.73-1.47,9.09-3.77.72-.36,2.63,1.08,3.34.81.92-.36,1.62-1.75,2.71-2,.77-.18,1.88,1.08,2.54.8-4.48,1.85,11.57-6.21,12.85-6.46,5.26-1.05,11.27-1.18,15.34-4.31,1.14.22,2.51,1.97,3.24,1.6s2.72-2.7,3.48-2.12c3.85,2.93,8.65,1.59,12.25,2.7,1.93.6,4.12,2.64,6.65,2.94Z"/>
    <path class="cls-1" d="M426.69,187.17c-2.68-20.56-2.91-40.41,2.84-61.38,1.06-.37,1.47.22,1.67,1.01.23.91-.07,1.76-.36,3-4.23,17.94-3.26,35.91-2.54,54.33.06,1.65-.31,3.28-1.6,3.04Z"/>
    <path class="cls-1" d="M240.93,65.98c5.45-.59-27.14,19.85-25.58,16.42,6.33-7.34,17.63-11.03,25.58-16.42Z"/>
    <path class="cls-2" d="M268.96,63.13l-8.44,3.13c.38-3.49,4.46-2.62,6.64-5.68,2.47-2.34,4.76.92,1.8,2.55Z"/>
    <path class="cls-2" d="M323.06,46.62l-10.13,2.17c-.23-4.96,1.87-5.11,4.13-4.63,1.76.38,4.53-1.1,6,2.46Z"/>
    <path class="cls-2" d="M528.32,47.25c.32,3.31,1.76,4.19,1.26,5.61-.41,1.19-2.32,1.39-3.02.05-.27-.52-.32-1.67-1.64-2.05-2.13-.61-2.09-2.79-.71-3.28,1.13-.41,2.63.38,4.1-.32Z"/>
    <circle class="cls-5" cx="501.18" cy="121.19" r=".97"/>
    <circle class="cls-1" cx="214.99" cy="90.5" r="1.32"/>
    <circle class="cls-5" cx="487.37" cy="32.96" r=".77"/>
    <circle class="cls-5" cx="467.42" cy="31.43" r=".77"/>
    <circle class="cls-2" cx="353.87" cy="23.75" r=".77"/>
    <path class="cls-1" d="M143.51,495.55c-31.74,36.34-39.49,78.71-77.92,114.21-17.06-39.21.21-87.55,38.29-103.69l24.62-10.43-25.48-10.85c-39.16-16.67-55.22-62.06-38.55-102.63,9.72,7.78,15.78,17.11,22.46,26.61,21.77,30.96,30.67,59.92,56.58,86.78Z"/>
    <circle class="cls-1" cx="64.05" cy="496.33" r="14.83"/>
    <path class="cls-1" d="M332.04,906.15c-31.64-24.23-31.79-60.38-25.48-98.54-22.22,23.58-51.35,35.54-82.55,30.11-19.14-3.33-36.36-11.69-48.84-27.81,18.14-7.96,36.37-10.66,55.2-10.16l36.8.97c16.2.43,31.14-1.13,46.8-5.74,4.29,21,14.22,37.8,24.52,55.63,13.02,22.55,24.02,45.54,28.6,72.04-13.9-1.64-24.76-8.63-35.04-16.5Z"/>
    <circle class="cls-1" cx="273.06" cy="865.65" r="14.7"/>
    <path class="cls-3" d="M651.01,809.59c1.64,19.62,4.78,38.07-.8,56.61-7.87,26.11-26.67,46.04-52.05,55.27-1.82.66-7.12,1.05-7.45-.71,4.72-26.85,15.69-50.67,29.26-73.71,10-16.98,18.07-33.49,22.19-52.93,46.72,16.93,96.07-6.37,139.6,15.35-17.23,21.57-43.38,30.93-69.63,29.21-23.16-1.52-42.41-12.24-61.11-29.09Z"/>
    <circle class="cls-3" cx="683.56" cy="865.67" r="14.79"/>
    <g>
      <path class="cls-4" d="M455.75,286.55c5.56-.69,11.25,4.48,17.09,4.87,3.79.25,7.59-2.67,10.56.04,1.65,5.71,6.03,9.83,9.72,14.93,2.11,2.93,1.68,7.48,4.31,9.57,4.14,19.68,10.37,40.21,3.97,60.94-5.11-5.13-5.62-11.53-7.19-17.55-4.69-18.03-8.15-35.64-16.77-53.57-8.72,19.68-13.12,38.9-17.81,58.73-1.09,4.61-1.94,9.05-4.55,12.52-9.17-14.19.86-42.52.84-59.38-29.67,37.43-74.78,61.87-118.34,71.24,20.51,4.27,38.54,8.83,54.74,20.09,2.11,1.47,6.17,4.82,4.04,6.6-23.23-1.66-45.06-11.75-69.84-13.56,14.53,21.03,30.63,33.24,45.19,53.9.77,1.46-1.46,3.5-3.08,2.64-19.74-10.41-35.25-24.39-49.06-41.53,13.64,47.41,19.36,76.8,8.23,125.55-2.08,9.1-4.96,17.28-5.57,27.5,14.47-16.64,28.94-31.35,49.96-39.61.69,5.6-4.2,9.48-7.76,13.55-12.92,14.78-27.31,27.47-38.32,45.03l66.13-15.76c1.66-.4,3.64-.5,4.38.61.98,1.47-.37,3.33-1.96,4.47-17.49,12.44-36.65,18.46-58.98,24.27,49.56,6.04,91.45,30.7,121.7,69.55l10.12,17.16c2.36,4.01,2.47,8.46.44,12.06-2.91.53-5.96,2.26-9.15,2.03-56.45-4.08-106.7-40.51-139.31-85.11-3.48-4.76-4.06-11.61-6.06-17.17-2.81-7.79-9.73-12.17-14.15-18.06-24.95-60.21-21.91-114.43-.2-174.86,4.1-7.01,11.9-12.39,14.96-20.52,1.79-4.77.69-10.74,3.92-14.91,11.76-15.17,23.15-29.89,38.61-42.46,29.21-23.75,62.31-39.25,99.18-43.8Z"/>
      <path class="cls-2" d="M493.05,681.37c-3.18,5.35-9.11,10.07-11.05,16.64-3.36,2.95-9.97,3.52-14.04,3.4,2.04-3.6,1.92-8.06-.44-12.06l-10.12-17.16c-3-19.77-8.54-39.32-2.72-60.95,4.62,4.02,5.05,10.21,6.25,15.72,4.46,20.5,9.41,40.23,17.08,59.28l22.06-75.82c9.85,13.17-.65,60.26-7.01,70.96Z"/>
      <path class="cls-3" d="M618.58,603c1.79.93,5.21-1.95,6.94,2.94-14.82,3.96-28.84,9.79-43.75,12.68-4.93.96-8.14.32-11.54,5.58-2.8,4.33-10.76,4.63-15.06,7.41l-20.41,13.21c-10.38,6.72-42.72,43.12-49.87,54.34-.53-.64-2.36-.25-2.89-1.16,1.94-6.57,7.87-11.29,11.05-16.64,1.34.03,2.57-.85,3.5-2.38,23.66-38.74,78.16-73.11,122.02-75.99Z"/>
      <circle class="cls-3" cx="636.99" cy="577.69" r=".97"/>
      <circle class="cls-5" cx="634.69" cy="419.64" r=".77"/>
      <circle class="cls-5" cx="636.22" cy="416.57" r=".77"/>
      <circle class="cls-5" cx="634.69" cy="570.01" r=".77"/>
      <circle class="cls-2" cx="477.42" cy="493.75" r="54.85"/>
      <path class="cls-2" d="M577.84,494.26c-11.81,4.77-22.56,7.12-34.41,10.09l.04-20.59c11.85,2.8,22.57,5.36,34.38,10.5Z"/>
      <path class="cls-2" d="M516.17,587.16c-9.08-9.27-15.14-18.55-22.97-28.61,7.02-2.38,11.65-4.71,18.19-7.86,1.84,12.62,5.34,23.57,4.79,36.47Z"/>
      <path class="cls-2" d="M461.54,429.23l-17.45,7.68c-2.96-11.76-4.34-22.46-5.06-35,8.9,8.14,15.43,16.1,22.51,27.31Z"/>
      <path class="cls-2" d="M461.63,558.76c-6.54,10.26-13.63,18.75-22.57,27.86.24-12.81,2.64-23.4,4.66-35.63l17.92,7.77Z"/>
      <path class="cls-2" d="M569.67,532.76c-11.67.19-22.4-2.41-34.62-4.93,2.27-6.59,4.31-11.75,7.87-18.05,9.57,8.04,18.23,13.18,26.75,22.98Z"/>
      <path class="cls-2" d="M548.03,564.34c-11.46-4.03-20.46-10.39-31.22-16.7l13.69-14.05c6.78,9.27,12.49,18.42,17.53,30.75Z"/>
      <path class="cls-2" d="M543.22,477.86c-4.31-5.28-5.38-11.31-8.85-18.02,12.37-1.5,23.01-4.87,35.7-4.73l-26.85,22.75Z"/>
      <path class="cls-2" d="M420.95,528.08c-11.57,2.18-22.14,4.86-35.05,4.54,8.42-9.36,17.18-15.15,27.08-22.71l7.97,18.18Z"/>
      <path class="cls-2" d="M420.02,459.7l-7.21,18.44c-10.07-7.77-19.18-14.18-27.49-23.21,12.02.49,22.12,2.35,34.71,4.77Z"/>
      <path class="cls-2" d="M512.06,435.77c-6.72-.28-11.56-4.39-18.74-6.41,6.91-10.25,13.58-18.75,22.51-27.83.19,11.86-2.33,21.27-3.77,34.24Z"/>
      <path class="cls-2" d="M487.4,560.43c-2.31,13.04-5.61,22.98-9.81,34.17-4.8-11.75-7.13-22.35-9.64-34.74,6.86.26,12.38-.88,19.44.57Z"/>
      <path class="cls-2" d="M438.25,547.43c-10.45,6.66-19.19,12.04-31.12,17.24,3.98-11.12,10.8-20.04,16.78-31.02l14.35,13.78Z"/>
      <path class="cls-2" d="M438.07,440.04l-13.59,14.03c-6.86-10.19-13.31-19.51-17.42-30.71,11.85,4.65,19.92,10.46,31.01,16.68Z"/>
      <path class="cls-2" d="M411.45,503.9c-11.04-1.71-21.3-5.38-32.71-9.68,11.07-5,21.18-7.69,32.99-10.25l-.28,19.93Z"/>
      <path class="cls-2" d="M487.16,427.65c-7.17,1.02-12.39.7-19.33.57,2.3-12.14,4.56-22.25,9.72-33.32,4.93,10.72,7.16,20.32,9.61,32.75Z"/>
      <path class="cls-2" d="M531.49,453.64c-5.84-4.1-8.93-8.22-13.87-13.28,10.61-6.38,18.71-12.71,30.65-17.37-3.88,11.42-10.53,19.29-16.78,30.65Z"/>
    </g>
    <circle class="cls-2" cx="891.8" cy="495.03" r="14.99"/>
    <path class="cls-3" d="M796.58,667.45c-2.55-.2-6.22,1.11-7.67-1.53,2.54.27,6.22-1.16,7.67,1.53Z"/>
    <g>
      <path class="cls-3" d="M293.27,187.74c.93-.53,1.42-1.89.73-2.1-1.58-.49-2.93.33-3.81,1.67-.87.16-1.94-.26-2.84-.22,2.64,1.18-8.65-15.12-.13-8.42.64.5,1.84,1.75,3.29,2.29,2.95-2.78,6.13-6.76,10.42-6.28,1.34.15,2.67,2.02,3.67,1.59,1.49-.65.4-3.79,1.04-4.55,1.29-1.52,1.36-4.46,2-7.29.58-2.59,4.23-1.43,5.38-.26.16-3.28-4.98-4.87-5.16-7.62-.93-13.87-5.69-16.28,3.49-22.61-6.14-4.17-5.88-10.43-3.24-16.33s3.6-12.96,7.7-18.34c1.8-2.35,4.02-4.39,2.05-6.88,11.12-15.25,27.15-28.11,48.42-31.37-5.98,30.53-17.43,57.9-32.53,83.67-8.98,15.32-13.2,31.61-19.92,48.12-7.75-1.45-14.47-2.87-20.56-5.07Z"/>
      <path class="cls-1" d="M300.93,174.68c-4.29-.48-7.47,3.49-10.42,6.28-1.44-.54-2.65-1.79-3.29-2.29-8.53-6.7,2.76,9.6.13,8.42-39.3-4.13-71.32,4.99-113.06-9.16,17.88-21.77,45.37-33.21,72.53-29.91,17.99,2.18,33.52,10.61,48.26,20.27,2.68,2,5,3.69,5.84,6.4Z"/>
      <circle class="cls-3" cx="271.6" cy="122.4" r="14.62"/>
      <path class="cls-1" d="M293.27,187.74l-3.08-.43c.88-1.34,2.23-2.16,3.81-1.67.69.22.2,1.58-.73,2.1Z"/>
      <path class="cls-1" d="M305.63,171.72c-3.64-7.05-3-15.95-3.66-24.22-1.66-20.71,4.52-39.53,15.89-55.11,1.97,2.49-.26,4.53-2.05,6.88-4.11,5.38-4.99,12.27-7.7,18.34s-2.9,12.16,3.24,16.33c-9.17,6.33-4.41,8.74-3.49,22.61.18,2.75,5.32,4.34,5.16,7.62-1.16-1.17-4.8-2.34-5.38.26-.64,2.83-.7,5.77-2,7.29Z"/>
    </g>
    <g>
      <path class="cls-2" d="M627.85,82.61c.4.07.97.25,1.31.48.79,2.16-.92,4.96-.57,7.37.76,5.2,6.69,6.55,10.07,8.9,6.23,4.33,5.25,13.08,7.78,18.33,4.03,8.4.97,15.01.29,23.28-.48,5.82,2.16,11.44.61,17.82-1.05,4.34,1.49,10.2,1.87,14.38.11,1.18.37,2.98,1.81,3.07-.96,1.18.2,1.11,0,0,1.94-2.54,4.66-4.2,7.1-6.15,8.35-2.48,15.55-8.18,24.12-11.77,4.87-2.04,9.57-2.34,14.21-3.91,23.99-8.13,50.11-3.62,69.85,12.07.8.64,1.59-.58,1.38-1.05l2.96,1.89c.62,3.15,3.62,4.96,6.12,7.97l-4.79,5.21c-.95.19-1.98.4-2.9.71-.6-1.05-1.62-1.86-3-2.66-.94-.55-1.34,1.03-2.64,1.47-14.73,4.94-23.8-.26-22.12,5.68-.97.02-2.14-.25-3.07,0,.2-.67-.49-1.52-1.59-1.52l-18.35-.04c-1.24,0-1.82,1.21-1.54,1.94-11.34-.83-23.09-.33-35.23-.31-28.31.04-38.38,11.87-42.13,1.9-5.75-15.28-10.61-30.1-18.57-44.4-9.53-17.12-18.62-34.19-22.72-52.76.77,3.5-3.1-23.35-7.03-21.58l-.19-1.2c.8-.36,1.77-1.28,2.65-1.25,1.59.05,2.1,1.99,2.82,3.82,2.19.99,4.41-1.61,6.67-1.31,10.31,2.83,17.44,12.41,24.8,13.64Z"/>
      <circle class="cls-2" cx="682.79" cy="121.99" r="14.73"/>
      <path class="cls-3" d="M649.21,173.18c-.38-4.18-2.92-10.05-1.87-14.38,1.55-6.38-1.09-11.99-.61-17.82.68-8.27,3.74-14.88-.29-23.28-2.52-5.26-1.54-14-7.78-18.33-3.38-2.35-9.31-3.7-10.07-8.9-.35-2.41,1.36-5.21.57-7.37,23.61,16.02,28.48,64.91,20.05,90.08Z"/>
      <path class="cls-3" d="M767.68,165.45c.21.47-.58,1.69-1.38,1.05-19.74-15.7-45.86-20.2-69.85-12.07-4.64,1.57-9.34,1.87-14.21,3.91-8.57,3.6-15.77,9.3-24.12,11.77,30.41-24.17,78.78-34.44,109.56-4.66Z"/>
      <path class="cls-3" d="M627.85,82.61c-7.36-1.23-14.49-10.81-24.8-13.64-2.27-.3-4.48,2.31-6.67,1.31-.73-1.83-1.23-3.77-2.82-3.82-.87-.03-1.84.89-2.65,1.25-15.95-19.37,38.38,8.75,36.94,14.89Z"/>
      <path class="cls-3" d="M769.09,181.22c-8.83,2.94-18.43,4.33-27.75,4.48-1.68-5.94,7.38-.73,22.12-5.68,1.29-.43,1.69-2.01,2.64-1.47,1.38.8,2.4,1.6,3,2.66Z"/>
      <path class="cls-3" d="M598.13,90.5c-4.41-5.9-5.91-14.33-7.03-21.58,3.93-1.77,7.8,25.08,7.03,21.58Z"/>
      <path class="cls-3" d="M771.98,180.51l4.79-5.21c-2.5-3.01-5.5-4.82-6.12-7.97,3.9,2.48,7.7,5.57,10.06,10.7-3.39,2.24-6.08,1.95-8.73,2.48Z"/>
      <path class="cls-3" d="M738.27,185.7c-7.44,2.01-14.46.88-21.48.37-.29-.72.3-1.94,1.54-1.94l18.35.04c1.1,0,1.79.85,1.59,1.52Z"/>
      <path class="cls-3" d="M651.02,176.26c.1.55-.14.85-.29.86s-.19-.27.29-.86Z"/>
    </g>
    <g>
      <path class="cls-2" d="M884.25,455.71c-4.48.52-7.19,4.87-6.46,9.23-1.84,1.86-4.88,4.24-6.33,6.13-3.85-.32-6,3.38-9.39,5.46s-8.06,2.71-8.65,6.63c-.85.16-2.4,1.03-3.12,1.49-3.57-.48-9.28,1.2-10.93,4.69l-2.9.61c-3.41-.93-7.7-.6-9.17,2.98-.38.92-.85,1.74-1.37,2.59-.33.54-.54,1.91-.18,2.38-1.55-2.02,16.05,5.4,12.75,4.4,9.6,2.91,16.46,8.52,24.3,14.17l6.51,4.69c15.79,11.38,24.74,31.86,25.64,50.73,1.04.8,2.43.48,3,.42.45,12.15,2.1,25.08-5.13,37.22-16.19-11.83-27.26-27.66-36.78-44.48l-22.12-39.08c-5.56-9.82-11.83-18.39-19.53-26.59-1.55-1.65-2.28-3.94-1.94-5.69.27-1.38,1.66-2.45,3-3.78,10.59-10.52,18.55-22.49,25.97-35.39l21.33-37.09c7.88-13.71,17.26-26.44,30.41-36.68,10.34,26.15,6.08,54.14-8.92,74.96ZM824.2,493.29c0-.42-.34-.77-.77-.77s-.77.34-.77.77.34.77.77.77.77-.34.77-.77Z"/>
      <path class="cls-3" d="M897.95,572.32c-.57.05-1.96.38-3-.42-.9-18.87-9.85-39.35-25.64-50.73l-6.51-4.69c-7.83-5.64-14.7-11.26-24.3-14.17,3.3,1-14.3-6.43-12.75-4.4-.36-.47-.16-1.85.18-2.38,37.28,7.3,70.56,37.78,72.01,76.79Z"/>
      <path class="cls-3" d="M871.47,471.07c-3.7,4.85-12.62,11.08-18.05,12.09.6-3.92,5.24-4.54,8.65-6.63s5.54-5.78,9.39-5.46Z"/>
      <path class="cls-3" d="M850.3,484.65c-2.37,2.32-7.48,3.96-10.93,4.69,1.65-3.5,7.36-5.17,10.93-4.69Z"/>
      <path class="cls-3" d="M836.48,489.96c-1.59,3.35-5.93,2.67-9.17,2.98,1.47-3.58,5.75-3.91,9.17-2.98Z"/>
      <path class="cls-3" d="M884.25,455.71c-2.33,3.24-3.67,6.42-6.46,9.23-.73-4.36,1.97-8.72,6.46-9.23Z"/>
      <circle class="cls-3" cx="823.44" cy="493.29" r=".77"/>
    </g>
  </g>
</svg>