<?xml version="1.0" encoding="UTF-8" standalone="no"?>
<!DOCTYPE svg PUBLIC "-//W3C//DTD SVG 1.1//EN" "http://www.w3.org/Graphics/SVG/1.1/DTD/svg11.dtd">
<svg width="100%" height="100%" viewBox="0 0 385 313" version="1.1" xmlns="http://www.w3.org/2000/svg" xmlns:xlink="http://www.w3.org/1999/xlink" xml:space="preserve" xmlns:serif="http://www.serif.com/" style="fill-rule:evenodd;clip-rule:evenodd;stroke-linejoin:round;stroke-miterlimit:2;">
    <g id="Fondo">
        <path d="M122.527,261.028C121.075,260.827 109.398,259.203 104.592,257.258C59.932,239.18 57.548,212.389 47.292,162.547C44.571,149.323 63.801,157.059 66.086,154.152C67.015,152.97 66.207,77.668 66.55,67.501C67.532,38.406 99.18,31.753 114.376,45.636C128.527,58.563 121.06,72.402 126.622,74.045C145.747,79.694 150.5,101.443 145.207,105.029C142.976,106.54 96.401,105.744 95.503,105.491C87.536,103.241 91.838,81.36 111.463,74.391C115.667,72.898 115.309,72.026 115.094,67.524C114.401,53.005 102.228,46.241 92.552,47.775C72.486,50.957 75.669,74.063 75.67,74.5C75.815,152.964 75.138,153.439 76.496,154.507C77.322,155.157 316.228,154.62 340.491,154.807C348.111,154.866 345.919,161.517 344.618,167.527C337.659,199.683 336.306,218.85 318.114,238.153C296.23,261.374 269.752,261.031 268.423,261.187C265.437,261.539 266.953,263.11 266.689,280.504C266.484,294.073 255.942,293.957 254.49,293.941C237.206,293.749 245.022,263.833 242.248,261.891C240.377,260.581 159.68,261.432 152.5,261.508C148.183,261.554 150.585,270.791 149.869,282.534C149.382,290.515 141.797,294.091 137.477,293.929C123.797,293.417 126.514,272.479 126.517,270.5C126.526,264.205 128.837,261.331 122.527,261.028ZM138.5,261.508C136.305,261.688 135.556,261.306 135.426,263.491C134.231,283.701 135.856,284.107 137.496,284.516C141.833,285.6 140.885,277.357 140.885,276.5C140.886,265.708 141.908,262.317 138.5,261.508ZM254.5,261.508C251.071,262.306 252.096,265.705 252.098,276.5C252.098,277.203 252.1,287.62 256.307,284.209C258.293,282.598 258.219,262.346 256.437,261.673C256.292,261.618 256.294,261.66 254.5,261.508ZM114.385,83.051C113.123,83.495 104.826,86.415 102.114,94.419C101.134,97.311 104.505,96.404 133.5,96.497C134.724,96.501 139.414,97.1 135.109,90.759C127.172,79.07 115.195,82.915 114.385,83.051ZM124.474,251.963C131.695,252.243 265.156,252.599 271.531,251.733C318.37,245.374 327.46,204.676 328.823,198.574C329.412,195.936 335.424,169.02 335.773,165.506C336.115,162.059 333.646,163.803 292.5,163.803C57.983,163.803 57.657,163.727 57.387,164.432C57.143,165.071 63.686,200.161 67.803,210.38C82.824,247.668 118.881,251.386 124.474,251.963Z" style="fill:rgb(46,100,23);"/>
    </g>
</svg>
