<?xml version="1.0" encoding="UTF-8" standalone="no"?>
<!DOCTYPE svg PUBLIC "-//W3C//DTD SVG 1.1//EN" "http://www.w3.org/Graphics/SVG/1.1/DTD/svg11.dtd">
<svg width="100%" height="100%" viewBox="0 0 458 313" version="1.1" xmlns="http://www.w3.org/2000/svg" xmlns:xlink="http://www.w3.org/1999/xlink" xml:space="preserve" xmlns:serif="http://www.serif.com/" style="fill-rule:evenodd;clip-rule:evenodd;stroke-linejoin:round;stroke-miterlimit:2;">
    <g id="Fondo" transform="matrix(1,0,0,1,-8.613597,-15.588467)">
        <path d="M170.5,68.966L185.504,68.965C191.63,68.947 194.714,58.521 224.529,55.788C273.642,51.285 285.926,68.624 290.515,69.024C308.145,70.561 342.093,64.236 356.229,75.843C371.315,88.23 367.897,93.158 368.227,169.504C368.246,173.905 372.485,173.246 378.282,176.841C406.34,194.24 405.28,215.642 405.257,257.5C405.252,266.483 406.347,269.101 397.522,270.64C377.439,274.142 378.426,291.392 377.673,295.542C376.317,303.015 367.691,307.546 361.487,306.619C340.462,303.477 356.883,285.198 336.223,272.999C330.169,269.424 329.643,270.318 211.5,270.318C142.849,270.318 141.656,269.318 134.765,275.794C127.039,283.054 127.46,288.42 126.709,293.533C126.465,295.188 124.471,308.754 110.479,306.723C95.152,304.498 97.803,289.74 95.77,284.403C89.669,268.388 71.919,272.752 70.29,266.557C69.492,263.52 70.257,228.78 70.329,225.496C71.214,185.312 97.758,176.775 105.639,172.761C108.268,171.421 106.549,151.653 106.93,132.503C107.495,104.048 105.577,95.691 110.396,86.446C121.09,65.93 137.223,68.966 170.5,68.966ZM305.5,79.034C294.705,79.036 287.011,79.185 285.418,78.809C283.286,78.305 281.273,75.644 280.271,74.773C268.021,64.122 214.023,58.466 194.107,77.058C191.359,79.624 190.868,78.975 143.5,79.034C117.416,79.067 116.816,93.061 116.967,110.501C117.178,134.919 117.011,134.848 117.036,161.5C117.043,167.945 116.421,171.613 122.423,169.296C125.915,167.947 120.871,133.373 125.771,123.627C134.519,106.227 143.839,111.991 216.499,110.627C231.054,110.353 235.386,117.078 236.782,118.075C238.682,119.432 240.283,114.359 248.631,111.952C256.775,109.604 304.889,111.351 320.515,110.805C358.555,109.474 350.857,131.919 351.783,167.467C351.853,170.132 358.247,170.885 358.294,167.487C359.305,93.682 358.385,92.572 354.304,87.649C345.846,77.444 340.458,79.034 305.5,79.034ZM395.039,235.494C395.126,221.125 396.082,211.385 386.984,198.162C385.621,196.18 377.435,184.282 362.428,180.822C355.066,179.125 354.992,179.319 150.5,179.319C129.555,179.319 98.409,175.053 84.932,203.712C78.601,217.175 79.466,238.207 81.398,238.764C82.168,238.987 119.212,238.988 122.5,238.988C144.101,238.99 391.073,239.002 392.515,238.988C395.878,238.955 394.954,235.968 395.039,235.494ZM133.907,130.575C133.704,133.442 133.324,138.813 133.638,166.496C133.681,170.285 136.555,169.354 154.5,169.354C231.432,169.354 231.814,169.481 232.435,168.464C232.553,168.273 233.355,134.335 232.049,129.636C229.091,119.001 223.999,120.791 171.5,120.791C143.035,120.791 137.678,118.714 133.907,130.575ZM341.878,151.5C341.833,135.886 342.866,128.425 337.291,123.749C332.495,119.726 327.974,120.791 297.5,120.791C250.575,120.791 246.534,119.117 243.231,129.423C242.227,132.556 242.724,168.031 242.898,168.332C243.479,169.343 248.044,169.353 248.5,169.354C255.779,169.371 335.454,169.554 339.493,169.349C342.652,169.19 341.838,164.594 341.878,151.5ZM80.034,255.5C80.154,259.423 79.702,260.339 83.527,261.393C105.122,267.34 106.745,288.411 106.979,291.452C107.506,298.291 115.916,298.544 116.992,292.598C118.491,284.311 118.317,276.873 129.448,267.436C139.08,259.27 140.433,260.347 229.5,260.347C333.493,260.347 334.173,259.706 342.314,264.805C364.27,278.556 353.418,299.224 364.546,296.697C372.148,294.97 363.152,274.423 387.341,263.142C393.123,260.446 395.265,261.352 395.321,258.49C395.384,255.208 396.04,249.382 393.579,249.057C393.354,249.027 113.826,249.027 89.5,249.027C85.964,249.027 86.037,249.027 82.507,248.967C78.885,248.907 80.041,255.021 80.034,255.5Z" style="fill:rgb(47,101,25);"/>
    </g>
</svg>
