<?xml version="1.0" encoding="UTF-8" standalone="no"?>
<!DOCTYPE svg PUBLIC "-//W3C//DTD SVG 1.1//EN" "http://www.w3.org/Graphics/SVG/1.1/DTD/svg11.dtd">
<svg width="100%" height="100%" viewBox="0 0 692 419" version="1.1" xmlns="http://www.w3.org/2000/svg" xmlns:xlink="http://www.w3.org/1999/xlink" xml:space="preserve" xmlns:serif="http://www.serif.com/" style="fill-rule:evenodd;clip-rule:evenodd;stroke-linejoin:round;stroke-miterlimit:2;">
    <g transform="matrix(1,0,0,1,-76.194289,-13.728701)">
        <g id="Fondo">
            <path d="M560.5,413.034C558.267,412.957 558.339,412.965 262.5,412.965C243.803,412.965 239.121,414.591 239.119,403.5C239.113,372.457 238.491,371.23 242.735,368.97C245.524,367.486 290.37,368.632 294.477,368.258C299.857,367.768 291.984,346.566 300.399,343.263C304.377,341.701 414.662,343.341 416.439,342.379C417.934,341.569 417.713,330.857 416.642,330.311C414.434,329.187 260.082,330.548 256.477,329.587C251.494,328.258 251.61,326.476 252.026,292.493C252.783,230.662 288.843,169.392 343.273,138.125C387.721,112.592 416.953,114.734 428.604,112.851C430.098,112.609 431.731,106.339 427.507,106.234C410.264,105.804 400.284,108.438 398.538,101.491C397.981,99.275 398.279,74.101 398.382,73.483C399.456,67.048 402.587,68.035 433.5,68.035C470.179,68.035 470.882,67.608 473.31,70.648C474.703,72.391 475.188,72.998 474.743,98.502C474.571,108.41 468.268,106.004 445.493,106.234C445.023,106.238 442.061,106.268 443.131,111.621C443.995,115.943 477.892,108.47 529.284,137.857C572.086,162.333 596.674,202.742 603.759,219.387C610.756,235.827 621.08,258.747 621.086,301.5C621.09,325.426 621.775,327.13 617.398,329.266C613.95,330.949 458.943,328.994 456.358,330.311C455.287,330.857 455.066,341.569 456.561,342.379C457.679,342.984 565.796,342.443 569.491,342.674C581.573,343.427 574.78,362.95 576.842,367.338C577.48,368.696 578.249,368.199 622.5,368.272C632.698,368.289 633.876,370.274 633.878,380.5C633.887,408.807 634.521,410.04 630.349,412.174C628.435,413.153 628.301,413.034 560.5,413.034ZM328.5,400.141C619.166,400.141 619.118,400.145 619.447,400.114C620.776,399.991 621.463,399.542 621.081,383.507C620.997,380.006 617.229,380.914 614.5,380.914C442.494,380.915 254.555,380.914 254.508,380.915C251.284,380.997 251.93,382.245 251.919,385.5C251.88,397.207 251.882,399.049 252.417,399.577C253.065,400.216 253.239,400.141 328.5,400.141ZM449.538,126.042C351.932,117.8 266.414,196.156 264.634,293.502C264.236,315.262 263.864,315.556 265.25,316.804C265.791,317.292 265.896,317.24 593.5,317.24C606.531,317.24 608.42,318.038 608.437,314.499C608.515,298.648 611.193,252.779 582.763,207.343C533.259,128.225 452.336,126.34 449.538,126.042ZM309.205,360.5C309.217,362.747 308.229,368.211 311.512,368.268C311.951,368.275 561.218,368.276 561.488,368.268C564.673,368.175 563.804,363.256 563.79,359.5C563.773,354.969 562.017,355.675 557.5,355.672C537.745,355.66 311.133,355.528 310.567,355.76C308.362,356.661 309.431,357.412 309.205,360.5ZM410.933,86.5C410.935,88.455 409.839,93.561 413.498,93.593C417.259,93.626 458.24,93.986 460.509,93.55C462.527,93.162 461.885,90.017 462.067,83.504C462.074,83.258 462.135,81.034 460.453,80.88C460.123,80.85 412.817,80.844 412.547,80.88C410.53,81.154 410.956,85.614 410.933,86.5ZM429.962,336.5C430.156,340.55 428.428,342.588 432.497,342.638C440.78,342.741 442.873,343.027 442.959,340.552C443.307,330.488 442.454,330.254 441.636,330.03C441.457,329.981 431.489,329.438 430.457,330.463C430.331,330.589 430.066,330.535 429.962,336.5Z" style="fill:rgb(46,100,23);"/>
        </g>
    </g>
</svg>
