<?xml version="1.0" encoding="UTF-8" standalone="no"?>
<!DOCTYPE svg PUBLIC "-//W3C//DTD SVG 1.1//EN" "http://www.w3.org/Graphics/SVG/1.1/DTD/svg11.dtd">
<svg width="100%" height="100%" viewBox="0 0 439 356" version="1.1" xmlns="http://www.w3.org/2000/svg" xmlns:xlink="http://www.w3.org/1999/xlink" xml:space="preserve" xmlns:serif="http://www.serif.com/" style="fill-rule:evenodd;clip-rule:evenodd;stroke-linejoin:round;stroke-miterlimit:2;">
    <g id="Fondo">
        <path d="M125.959,171.526C129.209,135.702 138.217,119.189 140.568,117.621C142.855,116.096 145.186,114.541 172.271,130.866C177.052,133.748 178.394,137.163 181.005,132.238C183.198,128.102 196.512,102.988 213.868,83.82C225.501,70.973 230.439,62.939 237.211,69.789C267.413,100.339 281.724,130.125 283.675,133.393C285.378,136.246 290.057,131.485 300.628,125.729C317.57,116.506 323.706,113.551 327.072,122.659C340.843,159.927 336.908,176.634 338.524,178.484C339.896,180.055 354.833,173.014 378.484,171.261C400.088,169.659 403.927,170.955 403.884,177.499C403.412,248.271 344.518,322.299 267.533,334.693C194.084,346.517 148.913,318.32 148.663,318.19C97.088,291.372 65.412,238.325 60.941,188.456C59.807,175.804 57.832,170.637 70.5,170.665C103.606,170.738 123.318,179.34 124.483,179.277C126.847,179.15 125.635,177.928 125.959,171.526ZM137.955,174.524C137.932,176.311 136.849,183.703 139.682,185.141C148.221,189.475 183.663,203.798 212.116,247.752C214.243,251.039 214.04,252.189 215.348,251.311C217.931,249.578 213.297,247.773 224.708,213.571C226.681,207.656 208,175.256 186.879,157.073C181.766,152.672 170.007,141.705 149.301,131.937C147.045,130.872 143.965,131.228 139.233,161.457C138.859,163.843 138.937,163.765 137.955,174.524ZM245.521,324.96C288.081,322.332 313.238,306.993 331.805,292.904C388.286,250.046 391.828,184.989 391.071,183.674C389.983,181.783 369.254,183.629 355.412,187.144C249.886,213.944 236.005,320.017 238.808,324.34C239.836,325.925 240.272,325.046 245.521,324.96ZM218.514,325.04C222.284,325.107 225.463,325.586 225.385,323.496C224.892,310.185 216.529,256.81 172.117,219.948C165.689,214.612 126.899,182.416 74.525,182.801C72.713,182.814 70.974,183.87 75.957,205.4C85.093,244.866 121.761,317.928 218.514,325.04ZM325.956,174.475C325.699,171.052 323.7,144.488 317.701,132.373C315.167,127.256 239.138,167.624 228.087,248.436C224.315,276.017 227.603,278.457 229.093,282.644C230.587,286.846 231.453,294.472 233.439,287.479C241.988,257.381 262.789,229.663 280.189,214.151C302.666,194.113 317.114,188.867 324.333,185.181C327.322,183.655 325.992,175.709 325.956,174.475ZM269.423,132.543C252.282,101.588 232.825,82.592 232.492,82.523C228.696,81.738 197.891,122.613 189.839,141.608C188.887,143.854 195.265,147.603 202.652,155.352C222.127,175.781 227.737,189.342 230.732,194.352C232.809,197.828 232.755,193.232 242.078,179.219C255.115,159.621 256.002,160.343 273.291,144.287C275.689,142.06 271.321,136.125 269.423,132.543Z" style="fill:rgb(46,100,23);"/>
        <path d="M314.923,81.375C313.981,72.688 321.296,73.615 322.653,74.086C332.66,77.554 320.869,93.518 314.923,81.375Z" style="fill:rgb(47,101,24);"/>
        <path d="M149.123,81.39C143.223,93.456 131.473,77.671 141.348,74.107C142.796,73.585 150.115,72.674 149.123,81.39Z" style="fill:rgb(47,100,24);"/>
        <path d="M63.862,148.396C63.03,139.332 71.153,141.123 71.584,141.27C81.538,144.658 69.81,160.998 63.862,148.396Z" style="fill:rgb(47,100,24);"/>
        <path d="M226.065,29.5C226.161,28.98 226.835,25.344 229.718,23.998C229.833,23.945 232.915,22.799 235.401,24.64C244.251,31.196 228.367,42.636 226.065,29.5Z" style="fill:rgb(46,100,23);"/>
        <path d="M399.702,149.606C391.458,160.297 383.259,142.982 393.414,141.033C393.923,140.935 397.035,140.337 399.362,143.592C400.875,145.71 399.841,149.144 399.702,149.606Z" style="fill:rgb(47,100,24);"/>
    </g>
</svg>
