<?xml version="1.0" encoding="UTF-8" standalone="no"?>
<!DOCTYPE svg PUBLIC "-//W3C//DTD SVG 1.1//EN" "http://www.w3.org/Graphics/SVG/1.1/DTD/svg11.dtd">
<svg width="100%" height="100%" viewBox="0 0 3508 4961" version="1.1" xmlns="http://www.w3.org/2000/svg" xmlns:xlink="http://www.w3.org/1999/xlink" xml:space="preserve" xmlns:serif="http://www.serif.com/" style="fill-rule:evenodd;clip-rule:evenodd;stroke-linejoin:round;stroke-miterlimit:2;">
    <g id="Fondo" transform="matrix(2.230469,0,0,2.230469,645,804)">
        <path d="M645.165,403.822C645.162,405.263 644.934,405.382 643.507,405.521C615.246,408.274 591.24,421.959 586.826,425.879C569.918,440.896 652.582,414.19 655.015,418.798C657.385,423.284 596.427,482.255 613.545,475.632C638.441,466.001 656.08,442.27 659.706,439.848C668.279,434.123 647.013,478.344 651.289,526.516C656.517,585.42 664.357,590.34 660.543,590.696C658.377,590.899 634.397,562.893 616.42,554.672C593.151,544.031 643.869,593.122 655.255,608.673C661.668,617.431 650.586,611.469 608.613,602.033C592.311,598.369 581.033,594.245 584.908,600.255C593.261,613.211 644.151,627.727 644.176,627.764C645.608,629.851 640.217,629.613 638.543,629.818C601.607,634.349 573.122,655.338 566.182,660.045C523.166,689.225 519.978,709.916 516.455,710.004C513.717,710.072 517.509,703.441 520.619,692.536C527.414,668.712 526.203,634.251 520.963,638.974C519.377,640.403 500.567,709.929 499.276,712.373C497.17,716.364 494.69,706.671 494.043,704.642C482.149,667.314 481.756,659.185 480.469,652.506C478.803,643.859 474.42,634.947 472.689,641.559C468.008,659.44 475.271,693.665 475.465,697.494C475.486,697.907 474.77,700.104 473.173,697.912C471.837,696.078 465.282,687.081 454.041,676.988C421.92,648.146 392.186,638.389 378.538,634.369C355.754,627.658 349.998,630.541 352.498,627.498C352.918,626.987 356.136,626.387 356.461,626.326C374.535,622.953 416.437,604.607 412.316,598.644C410.006,595.302 363.814,608.864 343.445,613.084C330.587,615.748 376.07,572.26 385.223,559.319C385.529,558.887 389.746,550.617 379.637,555.763C359.373,566.078 340.41,587.436 338.429,589.428C332.15,595.742 334.835,586.394 337.909,575.612C359.703,499.173 332.243,441.997 332.6,437.519C332.894,433.826 335.936,439.231 345.689,449.316C356.153,460.136 372.141,471.575 378.414,474.662C400.012,485.289 367.331,451.151 361.914,445.128C341.036,421.913 340.123,420.725 342.158,419.083C347.213,415.005 426.344,441.816 410.203,426.835C394.541,412.299 355.473,405.162 355.065,404.847C352.227,402.654 361.746,401.609 367.561,399.687C412.301,384.903 439.109,368.625 470.576,334.57C476.806,327.827 474.111,338.776 473.513,342.502C473.193,344.492 471.005,358.123 470.269,367.485C469.464,377.72 471.567,393.166 475.104,389.131C478.409,385.361 491.917,320.434 497.542,319.687C502.567,319.02 515.936,380.137 519.908,388.274C522.424,393.428 527.842,386.602 524.561,358.493C521.988,336.458 515.507,322.541 523.855,332.195C525.7,334.33 538.34,348.948 548.853,357.078C598.274,395.295 640.214,402.159 645.165,403.822ZM407.045,494.42C405.816,502.053 403.191,514.502 408.172,534.586C424.681,601.149 510.274,629.489 562.941,576.943C600.53,539.441 601.199,471.625 548.633,435.295C526.488,419.99 493.809,415.149 467.627,424.836C420.463,442.288 410.275,480.214 407.045,494.42Z" style="fill:url(#_Linear1);"/>
        <path d="M25.953,600.422C17.097,552.255 19.415,491.033 19.776,481.514C23.329,387.67 58.811,309.117 67.444,295.441C69.874,291.59 70.812,302.461 73.759,315.442C92.429,397.647 129.836,452.196 137.092,462.777C157.145,492.019 162.042,497.376 174.365,511.617C181.981,520.419 174.512,521.069 159.952,541.829C135.86,576.18 109.418,616.845 89.226,679.409C72.803,730.293 76.993,744.089 73.512,744.111C72.789,744.115 72.444,744.118 68.972,736.294C35.9,661.782 29.054,617.279 25.953,600.422Z" style="fill:url(#_Linear2);"/>
        <path d="M972.033,588.443C962.906,648.517 952.568,683.231 927.069,736.3C927.052,736.334 924.014,744.24 923.032,738.675C918.14,710.971 917.797,709.364 906.343,672.551C893.363,630.828 856.93,564.728 824.842,525.226C819.645,518.83 817.916,517.641 823.041,511.132C825.201,508.388 887.621,440.782 914.683,344.553C928.607,295.042 922.353,290.259 926.612,291.242C927.882,291.535 931.032,302.163 937.956,318.31C948.895,343.825 955.316,363.302 966.421,413.518C980.132,475.517 977.65,551.176 972.373,585.481C972.337,585.717 972.348,585.701 972.033,588.443Z" style="fill:url(#_Linear3);"/>
        <path d="M696.438,217.028C681.404,219.184 681.499,219.377 666.552,221.823C660.999,222.731 656.799,223.411 655.335,219.569C643.976,189.757 644.762,189.495 631.62,160.442C626.204,148.467 607.472,114.69 600.433,106.557C596.451,101.957 589.601,86.02 567.194,60.773C560.401,53.119 536.313,30.038 533.578,27.417C528.197,22.261 522.149,18.023 525.626,17.967C529.647,17.902 564.458,20.701 583.411,24.913C630.84,35.453 659.979,40.317 723.693,75.147C842.171,139.915 888.644,224.612 897.058,237.746C898.46,239.934 897.035,240.865 895.532,240.356C879.201,234.828 811.746,205.642 711.48,215.298C703.927,216.025 703.963,215.888 696.438,217.028ZM677.449,200.033C683.508,198.722 690.271,196.68 704.555,194.934C713.187,193.879 732.056,192.676 745.502,193.462C771.463,194.98 771.448,193.933 781.504,193.588C800.835,192.923 800.718,191.991 819.53,187.63C822.107,187.033 833.6,186.239 824.198,177.834C808.383,163.698 790.483,148.617 758.508,149.657C719.344,150.932 691.95,173.994 685.615,178.664C677.163,184.893 682.353,172.26 683.192,164.464C687.444,124.945 676.578,102.487 674.229,97.631C664.963,78.481 639.504,59.289 618.398,52.864C606.627,49.28 613.021,60.04 614.03,64.598C617.408,79.856 618.952,79.323 624.423,94.529C639.435,136.258 643.836,136.481 653.008,156.731C669.638,193.447 665.77,200.133 677.449,200.033ZM744.168,113.496C744.047,111.845 744.499,103.28 736.56,96.429C735.363,95.397 727.873,88.933 717.468,91.354C690.315,97.669 696.477,136.824 723.488,135.305C741.953,134.266 743.913,115.886 744.168,113.496Z" style="fill:url(#_Linear4);"/>
        <path id="_1" serif:id="1" d="M292.552,217.061C186.068,203.55 105.667,240.612 100.564,239.288C99.089,238.905 98.262,237.405 109.368,222.406C132.322,191.406 142.539,178.317 163.564,157.565C198.468,123.111 235.375,97.087 243.682,91.783C291.881,61.006 313.269,50.81 381.608,31.871C427.711,19.095 465.473,18.167 465.653,18.233C468.928,19.43 463.369,21.652 450.134,35.148C368.982,117.9 341.839,213.922 337.095,221.233C334.297,225.544 332.864,222.227 292.552,217.061ZM277.418,129.408C277.738,129.101 279.981,126.948 281.045,125.21C294.669,102.96 266.083,79.141 247.092,97.066C227.478,115.579 252.672,149.337 277.418,129.408ZM308.529,200.077C319.798,199.299 315.089,193.228 334.285,152.396C343.133,133.578 348.322,130.398 361.385,92.46C365.88,79.406 367.622,80.036 370.619,66.527C372.505,58.023 377.223,51.138 369.46,52.233C361.553,53.349 318.572,70.915 306.753,107.584C299.095,131.341 300.191,158.421 303.343,172.537C308.388,195.13 292.433,162.246 245.606,152.041C218.868,146.214 191.091,148.594 160.387,178.382C151.873,186.641 163.22,186.957 171.389,188.96C187.232,192.844 187.224,193.025 203.497,193.586C213.178,193.919 213.171,195.019 239.498,193.472C273.06,191.5 300.332,198.317 305.474,199.602C305.714,199.662 305.701,199.638 308.529,200.077Z" style="fill:url(#_Linear5);"/>
        <path id="_3" serif:id="3" d="M454.539,1007.045C398.352,1000.336 356.677,989.914 294.669,960.144C190.018,909.901 122.767,827.066 106.101,799.748C106.013,799.605 99.945,791.185 103.514,791.838C120.403,794.931 147.362,806.599 210.466,811.928C269.957,816.951 330.281,805.35 330.478,805.324C338.223,804.318 339.755,804.165 342.404,811.536C345.236,819.418 360.284,861.297 388.241,905.659C414.371,947.123 416.662,949.128 434.04,969.901C449.84,988.789 470.478,1004.95 471.223,1006.601C472.054,1008.445 470.401,1008.532 454.539,1007.045ZM262.504,877.126C261.342,877.193 253.946,877.62 248.727,881.786C231.116,895.844 242.801,921.909 262.502,921.725C288.919,921.479 294.206,879.522 262.504,877.126ZM198.491,832.068C186.848,832.505 186.908,832.886 164.617,837.985C164.039,838.117 158.443,839.397 157.681,840.617C155.583,843.972 162.079,849.348 177.632,861.319C206.75,883.731 257.242,880.485 297.396,848.365C301.523,845.064 304.863,843.246 304.239,848.462C303.9,851.295 300.312,860.275 301.184,885.509C302.824,932.995 326.452,950.335 345.374,962.707C347.649,964.195 377.985,981.452 373.51,968.497C368.848,955.002 370.292,954.54 364.652,941.433C356.76,923.094 360.014,921.688 337.164,878.675C321.655,849.482 318.875,828.358 312.677,826.058C304.657,823.081 288.055,835.301 229.502,831.462C216.699,830.623 216.744,831.216 198.491,832.068Z" style="fill:url(#_Linear6);"/>
        <path id="_4" serif:id="4" d="M684.44,806.946C804.131,825.597 887.749,790.035 892.387,791.767C894.28,792.474 892.323,794.962 885.858,803.76C870.203,825.064 870.957,825.62 853.343,845.362C807.753,896.463 718.657,970.955 603.564,994.791C597.686,996.008 537.975,1008.375 529.47,1006.619C526.256,1005.956 527.988,1004.232 533.623,998.625C557.173,975.187 586.996,954.645 631.979,865.743C654.052,822.118 653.663,803.371 660.501,803.449C662.437,803.471 662.399,803.74 684.44,806.946ZM721.492,877.13C692.356,879.872 693.309,917.403 719.492,921.565C734.661,923.976 751.379,905.842 741.004,887.795C735.216,877.726 723.269,877.207 721.492,877.13ZM786.509,832.065C781.302,831.823 781.36,832.012 778.477,831.737C753.508,829.354 734.768,835.632 694.567,829.088C676.767,826.19 671.886,820.491 666.702,834.577C647.139,887.731 639.388,890.779 629.942,915.667C628.705,918.928 615.669,953.272 614.922,956.593C613.449,963.141 612.997,962.963 611.39,969.473C608.759,980.137 635.908,965.191 639.653,962.749C667.027,944.901 685.314,925.695 683.911,872.484C683.309,849.637 678.678,846.489 681.348,845.311C683.442,844.387 687.42,848.092 688.762,849.163C715.362,870.398 767.921,891.14 809.213,860.119C829.954,844.538 828.615,842.331 827.438,840.545C826.68,839.396 820.974,838.093 820.389,837.959C798.219,832.894 798.281,832.48 786.509,832.065Z" style="fill:url(#_Linear7);"/>
        <path d="M902.057,313.425C900.901,319.234 891.938,383.357 842.199,459.301C832.986,473.368 811.27,501.7 807.466,502.34C802.377,503.196 789.404,482.543 745.582,446.398C711.498,418.285 702.838,414.503 707.368,413.222C707.653,413.141 719.171,414.185 734.466,413.12C748.665,412.131 780.34,406.868 804.772,392.987C870.293,355.76 903.416,280.516 905.395,280.171C907.629,279.782 907.769,281.496 903.002,308.421C902.931,308.822 902.932,308.791 902.057,313.425Z" style="fill:url(#_Linear8);"/>
        <path d="M95.935,730.572C102.899,691.014 109.879,674.813 117.307,653.432C130.246,616.192 158.011,573.19 169.363,557.405C178.616,544.54 186.632,531.534 190.468,531.813C192.816,531.984 215.782,556.622 249.593,584.387C287.592,615.59 295.826,617.374 295.178,619.38C294.05,622.874 228.786,611.075 172.402,655.37C136.114,683.878 121.558,709.244 104.938,737.753C95.112,754.608 94.138,757.499 92.956,755.258C92.547,754.482 94.046,740.901 95.935,730.572Z" style="fill:url(#_Linear9);"/>
        <path d="M95.948,328.397C93.133,316.983 91.991,310.069 91.725,308.46C87.309,281.723 87.288,280.097 89.526,280.371C90.638,280.507 90.403,280.901 96.925,292.258C165.74,412.081 240.535,414.147 288.523,414.127C294.601,414.124 287.773,418.608 284.172,421.028C264.794,434.051 244.562,450.675 235.284,459.256C199.592,492.267 193.07,502.863 189.509,502.437C185.661,501.976 162.431,470.317 160.997,468.159C142.547,440.387 116.337,401.356 95.948,328.397Z" style="fill:url(#_Linear10);"/>
        <path d="M903.067,743.561C903.412,746.011 906.346,761.429 899.257,749.64C892.326,738.114 862.527,669.652 798.721,638.045C743.669,610.774 702.902,624.939 704.622,617.539C705.046,615.719 706.184,616.678 722.664,602.691C746.645,582.338 750.228,586.54 796.204,540.213C802.788,533.578 804.174,529.565 810.894,536.087C815.536,540.593 829.952,554.584 855.871,603.3C893.751,674.499 898.996,721.795 903.067,743.561Z" style="fill:url(#_Linear11);"/>
        <path d="M789.454,233.936C829.098,239.407 842.049,240.365 890.34,259.884C892.002,260.556 892.81,260.745 893.743,261.208C895.489,262.076 895.44,263.406 893.478,263.396C871.834,263.279 824.787,262.54 776.689,281.963C749.51,292.938 721.985,316.804 707.997,335.877C685.997,365.876 688.603,367.528 683.007,375.029C682.204,376.105 680.797,375.017 680.75,374.43C679.476,358.323 683.95,334.569 666.27,258.551C662.925,244.17 663.117,243.762 663.667,242.591C665.336,239.041 726.581,226.98 789.454,233.936Z" style="fill:url(#_Linear12);"/>
        <path d="M283.465,233.956C287.279,234.411 327.637,239.226 330.756,242.238C333.853,245.228 326.443,254.853 319.047,308.442C314.039,344.722 313.766,374.599 313.22,375.294C310.895,378.255 312.022,373.092 295.997,349.167C241.014,267.073 162.48,266.9 130.49,264.636C128.654,264.506 112.65,263.373 107.537,263.107C95.393,262.474 109.062,258.934 122.593,253.754C127.898,251.724 148.429,243.865 191.558,236.896C238.925,229.242 278.255,233.636 283.465,233.956Z" style="fill:url(#_Linear13);"/>
        <path d="M442.948,181.478C449.185,252.357 482.941,273.801 473.484,272.834C470.651,272.545 436.14,251.073 368.562,232.28C359.651,229.802 355.095,228.783 356.402,223.476C369.805,169.07 421.239,86.596 468.607,44.625C472.324,41.332 487.838,26.978 484.501,34.5C480.63,43.227 445.047,101.625 442.468,159.499C442.326,162.68 442.85,177.777 442.948,181.478Z" style="fill:url(#_Linear14);"/>
        <path d="M547.117,124.597C546.391,121.967 546.38,122.038 545.695,119.446C544.827,116.162 543.713,112.125 543.537,111.489C536.237,85.037 510.496,38.92 510.41,35.496C510.225,28.078 541.259,60.842 543.645,63.361C552.735,72.958 584.549,104.027 617.288,171.601C624.852,187.214 639.337,223.752 637.265,227.383C636.094,229.434 630.078,230.917 629.403,231.084C600.265,238.265 563.743,253.164 551.663,258.848C518.503,274.448 516.379,277.532 516.736,274.491C516.966,272.529 546.503,239.186 551.624,182.512C552.527,172.511 551.365,172.556 551.376,162.5C551.392,148.525 552.414,148.363 547.117,124.597Z" style="fill:url(#_Linear15);"/>
        <path d="M451.031,821.396C445.599,845.279 440.482,871.356 454.965,920.361C462.252,945.015 484.406,988.096 483.542,989.521C482.567,991.131 481.423,990.571 465.13,974.886C439.822,950.523 439.32,948.75 425.376,930.593C417.937,920.906 390.125,878.837 376.874,850.327C369.269,833.965 355.115,803.587 358.256,800.274C361.632,796.712 423.421,785.596 476.321,755.126C482.923,751.324 477.278,758.982 472.634,767.573C461.176,788.773 457.316,797.975 451.031,821.396Z" style="fill:url(#_Linear16);"/>
        <path d="M546.94,911.607C547.924,907.038 554.369,877.129 552.799,853.479C549.562,804.726 525.529,768.316 518.134,755.664C515.543,751.232 519.413,753.049 519.617,753.161C527.322,757.387 527.396,757.128 535.261,760.987C539.708,763.168 568.27,777.181 592.399,784.819C636.459,798.765 638.718,797.506 638.682,801.505C638.629,807.395 631.159,825.415 630.324,827.428C613.76,867.387 597.317,899.06 569.128,935.211C551.821,957.407 528.118,980.036 517.256,988.099C515.173,989.646 513.536,988.898 514.71,986.586C544.704,927.542 544.602,920.588 546.94,911.607Z" style="fill:url(#_Linear17);"/>
        <path d="M116.53,771.935C167.151,768.379 191.25,761.385 191.46,761.334C271.435,741.999 307.131,667.831 311.901,660.83C315.468,655.594 313.183,663.388 317.146,699.542C322.945,752.43 334.27,784.1 332.072,787.237C329.188,791.35 260.032,799.643 208.448,793.965C202.062,793.262 158.174,788.431 129.396,779.842C111.457,774.488 111.348,774.128 111.316,773.517C111.221,771.715 116.201,771.955 116.53,771.935Z" style="fill:url(#_Linear18);"/>
        <path d="M875.482,771.959C876.025,771.96 881.826,771.967 882.224,772.694C883.304,774.67 881.53,774.644 855.547,781.666C761.136,807.183 666.842,786.837 666.425,786.642C659.877,783.579 671.111,761.055 675.958,722.562C677.397,711.131 679.31,705.337 681.592,668.506C681.804,665.07 681.764,652.595 685.212,659.654C693.478,676.578 700.217,692.998 734.306,723.724C752.135,739.794 797.572,764.672 853.534,770.111C864.532,771.18 864.48,771.402 875.482,771.959Z" style="fill:url(#_Linear19);"/>
        <path d="M702.955,498.463C700.447,463.856 685.38,427.38 684.398,424.517C683.761,422.657 685.162,422.1 686.285,422.901C691.413,426.554 691.23,426.722 705.255,436.842C724.712,450.882 733.815,458.745 738.118,461.997C752.814,473.099 790.582,511.204 793.014,515.749C793.515,516.685 794.638,518.782 786.031,527.032C753.643,558.079 735.891,573.301 710.152,591.025C687.972,606.299 682.903,610.594 685.035,605.391C702.494,562.79 705.782,536.003 702.955,498.463Z" style="fill:url(#_Linear20);"/>
        <path d="M295.079,480.436C290.76,508.606 290.136,536.302 297.61,570.475C302.679,593.657 311.998,605.361 308.397,606.046C306.353,606.435 306.875,604.923 287.84,592.025C285.457,590.41 254.595,568.815 230.496,545.504C215.872,531.357 201.785,518.98 203.814,514.639C205.178,511.723 232.579,484.378 246.111,473.059C251.917,468.203 261.991,459.522 263.366,458.337C268.554,453.866 304.996,426.222 307.46,426.806C312.408,427.979 302.556,436.793 296.191,473.442C296.094,474.001 296.129,473.992 295.079,480.436Z" style="fill:url(#_Linear21);"/>
        <path d="M329.964,379.509C330.947,359.08 330.2,359.058 333.531,326.503C336.788,294.663 345.312,258.368 347.379,251.463C349.727,243.623 352.543,246.641 360.565,248.116C378.643,251.44 442.656,275.839 461.796,288.036C471.979,294.525 474.672,294.48 472.487,296.483C471.327,297.545 407.461,302.297 354.464,357.466C337.122,375.518 332.804,385.513 330.669,384.262C329.891,383.807 330.231,383.589 329.964,379.509Z" style="fill:url(#_Linear22);"/>
        <path d="M337.918,726.431C331.919,691.329 331.866,659.921 331.656,653.495C331.653,653.407 329.936,642.512 336.088,650.799C338.989,654.707 354.108,675.073 378.831,694.083C433.411,736.051 475.385,732.207 475.664,735.465C476.121,740.808 404.76,768.796 384.354,775.037C356.418,783.58 352.856,784.078 351.46,781.525C346.722,772.861 338.764,730.891 337.918,726.431Z" style="fill:url(#_Linear23);"/>
        <path d="M660.024,320.55C662.732,345.216 665.518,379.175 664.163,382.339C662.167,386.999 659.931,377.286 640.446,356.55C620.799,335.64 620.019,336.398 596.269,321.876C580.634,312.315 573.052,306.098 530.582,298.103C527.135,297.454 518.217,296.586 524.754,292.936C531.662,289.078 577.399,265.299 608.523,255.573C641.984,245.117 642.794,245.002 644.865,247.151C646.265,248.606 646.225,248.736 651.679,271.456C655.552,287.59 657.867,307.314 660.024,320.55Z" style="fill:url(#_Linear24);"/>
        <path d="M660.034,711.435C659.808,712.712 653.006,758.395 646.558,778.52C644.602,784.622 640.567,781.723 627.575,778.227C601.992,771.342 531.992,742.918 528.139,739.968C524.571,737.235 524.779,736.911 520.586,735.351C518.304,734.502 519.858,732.992 520.612,732.849C524.265,732.155 576.353,729.004 619.82,692.884C622.172,690.93 640.96,675.317 648.011,667.065C657.757,655.658 657.694,655.638 662.712,646.627C664.029,644.263 665.793,644.746 665.73,647.486C665.046,677.322 660.781,706.353 660.034,711.435Z" style="fill:url(#_Linear25);"/>
        <path d="M494.034,133.484C495.057,78.199 492.916,76.403 495.487,76.323C499.5,76.198 496.385,119.197 498.764,150.476C500.023,167.034 518.966,128.219 519.575,127.578C520.161,126.961 522.78,126.378 521.186,130.395C511.103,155.814 491.34,163.319 501.038,213.582C501.45,215.72 501.706,223.489 507.316,217.326C520.817,202.492 529.385,175.154 530.322,173.358C531.049,171.965 533.392,172.093 532.448,175.488C528.018,191.411 517.696,208.564 506.268,228.366C493.302,250.832 500.772,271.195 497.929,275.882C493.935,282.467 496.702,258.679 492.727,242.436C488.067,223.388 462.556,198.42 469.493,198.394C472.318,198.383 487.042,224.936 491.518,221.527C493.608,219.935 495.791,195.697 493.173,175.541C491.22,160.501 473.837,139.003 474.17,134.417C474.592,128.584 481.402,143.91 487.944,152.126C493.903,159.61 493.404,145.567 494.034,133.484Z" style="fill:url(#_Linear26);"/>
        <path d="M822.524,695.03C811.42,694.536 800.74,694.738 798.408,695.112C792.267,696.097 797.866,700.003 823.207,715.962C835.786,723.883 835.718,723.916 848.336,731.751C848.696,731.974 854.192,735.387 851.432,736.054C849.569,736.505 813.201,713.606 793.389,703.732C788.308,701.199 790.553,708.032 790.689,708.445C796.766,726.944 811.088,740.527 809.495,742.496C808.896,743.237 807.221,744.424 800.907,734.243C777.549,696.578 780.91,691.759 741.624,671.261C726.22,663.224 747.328,698.978 746.064,701.271C743.696,705.566 735.204,681.632 728.26,669.643C718.84,653.377 697.929,644.723 694.774,640.343C693.451,638.505 695.943,637.644 703.215,641.988C730.784,658.456 732.809,652.656 772.484,654.764C793.272,655.869 794.013,656.907 793.729,658.61C793.352,660.866 758.583,655.775 745.471,658.321C735.432,660.27 744.281,665.511 746.227,666.888C760.071,676.682 767.756,682.777 785.636,689.141C794.602,692.333 823.281,689.985 834.623,693.13C838.262,694.139 837.263,696.337 835.498,696.185C828.962,695.622 829.039,695.388 822.524,695.03Z" style="fill:url(#_Linear27);"/>
        <path d="M503.07,815.448C497.382,863.452 503.51,864.436 521.131,894.696C523.592,898.923 520.826,898.538 520.559,898.402C519.151,897.68 504.586,869.589 502.853,881.559C499.762,902.902 501.591,930.573 499.421,931.324C496.252,932.423 498.587,929.366 496.55,889.498C496.119,881.063 495.911,874.876 490.804,879.816C484.503,885.911 474.166,906.321 473.554,906.588C464.29,910.628 488.756,878.478 494.686,861.568C495.669,858.764 497.611,853.227 496.794,824.489C496.421,811.381 494.56,811.359 493.563,811.704C489.085,813.251 477.906,829.671 471.427,845.468C466.136,858.369 464.716,864.036 462.977,862.108C462.386,861.452 464.842,845.997 486.165,811.294C500.084,788.643 494.825,786.818 498.27,760.44C498.801,756.373 500.45,758.247 500.541,758.469C502.767,763.933 498.515,778.092 502.937,790.348C508.848,806.729 540.578,856.143 533.501,855.964C531.323,855.908 526.027,836.211 512.134,816.774C506.374,808.716 505.018,809.872 504.408,810.392C503.31,811.329 503.768,811.564 503.07,815.448Z" style="fill:url(#_Linear28);"/>
        <path d="M780.384,347.163C777.027,348.428 764.446,353.168 741.575,369.604C735.483,373.981 742.409,374.653 747.476,375.627C771.676,380.275 799.186,373.101 794.55,378.549C793.454,379.837 793.102,379.283 773.483,380.249C732.016,382.289 730.994,377.154 717.315,384.142C706.681,389.575 698.724,392.221 698.533,392.175C692.761,390.789 712.951,382.368 721.078,372.135C736.692,352.476 745.791,318.337 749.219,324.619C750.657,327.254 725.317,367.219 739.592,362.806C740.287,362.591 763.594,353.82 776.284,339.314C790.084,323.54 795.463,302.018 798.769,305.188C801.001,307.327 779.863,336.141 795.356,330.109C812.52,323.427 847.954,299.776 850.626,300.149C853.891,300.605 848.556,303.929 848.241,304.125C837.149,311.038 795.985,334.643 795.263,337.408C794.672,339.677 795.838,342.282 824.457,340.008C834.273,339.227 840.892,337.468 839.147,340.243C836.894,343.825 807.293,343.898 804.506,343.905C790.984,343.938 788.028,344.816 780.384,347.163Z" style="fill:url(#_Linear29);"/>
        <path d="M249.513,381.057C224.486,380.306 201.589,379.881 205.226,376.283C206.502,375.021 239.118,379.656 253.523,375.572C258.382,374.194 255.951,371.898 251.771,369.098C225.695,351.632 215.765,348.159 212.351,346.966C199.84,342.591 168.632,345.454 163.643,342.281C163.449,342.158 160.847,339.609 165.497,340.09C178.908,341.476 195.477,341.882 198.327,340.219C202.213,337.95 197.527,337.266 161.275,313.855C141.267,300.934 140.005,301.108 140.743,299.562C142.156,296.601 142.71,300.734 193.321,327.828C220.855,342.568 193.205,308.767 193.981,305.7C194.594,303.279 197.422,304.379 211.844,331.314C213.421,334.259 219.756,346.091 243.413,358.661C255.397,365.029 261.588,369.073 259.591,361.478C254.513,342.173 245.303,330.07 242.267,323.6C241.129,321.175 242.79,320.215 244.119,321.82C250.816,329.91 256.04,346.939 273.011,371.838C281.445,384.211 300.504,390.372 302,394.691C302.092,394.956 302.643,397.746 298.568,395.373C279.447,384.237 279.626,381.813 249.513,381.057Z" style="fill:url(#_Linear30);"/>
        <path d="M191.531,694.047C171.246,693.205 170.7,695.799 168.961,694.007C166.007,690.962 179.543,690.601 191.5,690.507C216.312,690.313 216.888,689.259 252.29,666.17C268.907,655.333 216.097,658.942 215.739,655.45C215.326,651.417 233.133,656.292 257.506,654.579C283.679,652.739 295.723,638.557 298.864,641.046C302.626,644.026 285.118,648.939 272.801,663.739C266.414,671.413 248.929,715.066 246.959,707.368C246.504,705.588 266.236,673.219 261.155,669.964C259.435,668.862 242.064,675.19 225.162,690.118C209.293,704.133 203.262,730.506 199.383,726.6C198.081,725.289 208.383,710.008 207.664,705.473C206.575,698.61 194.243,709.796 146.705,735.947C142.494,738.263 143.696,734.948 143.858,734.761C144.275,734.279 198.81,701.163 201.262,698.309C203.793,695.363 192.376,694.138 191.531,694.047Z" style="fill:url(#_Linear31);"/>
    </g>
    <g transform="matrix(1,0,0,1,-0,-139.391711)">
        <g transform="matrix(0.819289,0.573381,-0.573381,0.819289,1922.856681,60.67817)">
            <text x="865.165px" y="3080.87px" style="font-family:'DMSerifDisplay-Regular', 'DM Serif Display';font-size:150px;fill:url(#_Linear32);">D</text>
        </g>
        <g transform="matrix(0.849777,0.527143,-0.527143,0.849777,1793.731234,-25.590678)">
            <text x="941.765px" y="3134.361px" style="font-family:'DMSerifDisplay-Regular', 'DM Serif Display';font-size:150px;fill:url(#_Linear33);">E</text>
        </g>
        <g transform="matrix(0.876339,0.481695,-0.481695,0.876339,1656.18473,-94.781642)">
            <text x="1012.693px" y="3178.265px" style="font-family:'DMSerifDisplay-Regular', 'DM Serif Display';font-size:150px;fill:url(#_Linear34);">S</text>
        </g>
        <g transform="matrix(0.901179,0.433447,-0.433447,0.901179,1500.799286,-150.760984)">
            <text x="1081.032px" y="3216.012px" style="font-family:'DMSerifDisplay-Regular', 'DM Serif Display';font-size:150px;fill:url(#_Linear35);">C</text>
        </g>
        <g transform="matrix(0.926266,0.376871,-0.376871,0.926266,1312.402702,-197.851664)">
            <text x="1161.832px" y="3255.058px" style="font-family:'DMSerifDisplay-Regular', 'DM Serif Display';font-size:150px;fill:url(#_Linear36);">O</text>
        </g>
        <g transform="matrix(0.947953,0.31841,-0.31841,0.947953,1113.304659,-227.324962)">
            <text x="1252.011px" y="3291.799px" style="font-family:'DMSerifDisplay-Regular', 'DM Serif Display';font-size:150px;fill:url(#_Linear37);">N</text>
        </g>
        <g transform="matrix(0.964859,0.262768,-0.262768,0.964859,920.229164,-236.319051)">
            <text x="1343.659px" y="3322.373px" style="font-family:'DMSerifDisplay-Regular', 'DM Serif Display';font-size:150px;fill:url(#_Linear38);">E</text>
        </g>
        <g transform="matrix(0.977932,0.208925,-0.208925,0.977932,730.009658,-223.339172)">
            <text x="1422.199px" y="3343.892px" style="font-family:'DMSerifDisplay-Regular', 'DM Serif Display';font-size:150px;fill:url(#_Linear39);">C</text>
        </g>
        <g transform="matrix(0.988737,0.149663,-0.149663,0.988737,520.3091,-188.222986)">
            <text x="1510.714px" y="3362.837px" style="font-family:'DMSerifDisplay-Regular', 'DM Serif Display';font-size:150px;fill:url(#_Linear40);">T</text>
        </g>
        <g transform="matrix(0.995414,0.095662,-0.095662,0.995414,330.214524,-136.855076)">
            <text x="1592.441px" y="3375.553px" style="font-family:'DMSerifDisplay-Regular', 'DM Serif Display';font-size:150px;fill:url(#_Linear41);">A</text>
        </g>
        <g transform="matrix(0.998684,0.051289,-0.051289,0.998684,175.796722,-82.207199)">
            <text x="1689.68px" y="3384.242px" style="font-family:'DMSerifDisplay-Regular', 'DM Serif Display';font-size:150px;fill:url(#_Linear42);">|</text>
        </g>
        <g transform="matrix(0.999917,-0.012882,0.012882,0.999917,-43.496783,22.983902)">
            <text x="1762.315px" y="3387.813px" style="font-family:'DMSerifDisplay-Regular', 'DM Serif Display';font-size:150px;fill:url(#_Linear43);">R</text>
        </g>
        <g transform="matrix(0.997639,-0.068672,0.068672,0.997639,-228.171827,135.481565)">
            <text x="1856.472px" y="3386.465px" style="font-family:'DMSerifDisplay-Regular', 'DM Serif Display';font-size:150px;fill:url(#_Linear44);">E</text>
        </g>
        <g transform="matrix(0.99268,-0.120777,0.120777,0.99268,-394.110026,258.992329)">
            <text x="1939.483px" y="3380.677px" style="font-family:'DMSerifDisplay-Regular', 'DM Serif Display';font-size:150px;fill:url(#_Linear45);">S</text>
        </g>
        <g transform="matrix(0.984966,-0.17275,0.17275,0.984966,-552.097645,399.027473)">
            <text x="2016.447px" y="3371.429px" style="font-family:'DMSerifDisplay-Regular', 'DM Serif Display';font-size:150px;fill:url(#_Linear46);">P</text>
        </g>
        <g transform="matrix(0.977023,-0.213133,0.213133,0.977023,-667.198382,524.380086)">
            <text x="2098.481px" y="3356.663px" style="font-family:'DMSerifDisplay-Regular', 'DM Serif Display';font-size:150px;fill:url(#_Linear47);">I</text>
        </g>
        <g transform="matrix(0.966176,-0.257883,0.257883,0.966176,-790.808027,665.822457)">
            <text x="2142.811px" y="3347.59px" style="font-family:'DMSerifDisplay-Regular', 'DM Serif Display';font-size:150px;fill:url(#_Linear48);">R</text>
        </g>
        <g transform="matrix(0.948138,-0.31786,0.31786,0.948138,-940.301918,882.840363)">
            <text x="2235.274px" y="3322.933px" style="font-family:'DMSerifDisplay-Regular', 'DM Serif Display';font-size:150px;fill:url(#_Linear49);">A</text>
        </g>
        <g transform="matrix(0.932846,-0.360275,0.360275,0.932846,-1029.461683,1059.598951)">
            <text x="2327.597px" y="3291.286px" style="font-family:'DMSerifDisplay-Regular', 'DM Serif Display';font-size:150px;fill:url(#_Linear50);">|</text>
        </g>
        <g transform="matrix(0.908559,-0.417757,0.417757,0.908559,-1145.783413,1297.982102)">
            <text x="2392.081px" y="3266.297px" style="font-family:'DMSerifDisplay-Regular', 'DM Serif Display';font-size:150px;fill:url(#_Linear51);">V</text>
        </g>
        <g transform="matrix(0.888459,-0.458956,0.458956,0.888459,-1204.285851,1497.112491)">
            <text x="2477.927px" y="3226.182px" style="font-family:'DMSerifDisplay-Regular', 'DM Serif Display';font-size:150px;fill:url(#_Linear52);">I</text>
        </g>
        <g transform="matrix(0.866984,-0.498336,0.498336,0.866984,-1262.677449,1681.380154)">
            <text x="2518.253px" y="3205.961px" style="font-family:'DMSerifDisplay-Regular', 'DM Serif Display';font-size:150px;fill:url(#_Linear53);">V</text>
        </g>
        <g transform="matrix(0.836846,-0.547439,0.547439,0.836846,-1304.884263,1938.831645)">
            <text x="2600.281px" y="3158.583px" style="font-family:'DMSerifDisplay-Regular', 'DM Serif Display';font-size:150px;fill:url(#_Linear54);">E</text>
        </g>
    </g>
    <g transform="matrix(1,0,0,1,-117.244772,340.863342)">
        <g transform="matrix(0.87643,-0.481529,0.481529,0.87643,-195.357202,561.690181)">
            <text x="996.723px" y="661.481px" style="font-family:'DMSerifDisplay-Regular', 'DM Serif Display';font-size:505.372px;fill:url(#_Linear55);">S</text>
        </g>
        <g transform="matrix(0.931594,-0.363499,0.363499,0.931594,-111.889089,482.963337)">
            <text x="1227.262px" y="538.765px" style="font-family:'DMSerifDisplay-Regular', 'DM Serif Display';font-size:505.372px;fill:url(#_Linear56);">I</text>
        </g>
        <g transform="matrix(0.976731,-0.21447,0.21447,0.976731,-70.370918,304.326445)">
            <text x="1367.274px" y="476.461px" style="font-family:'DMSerifDisplay-Regular', 'DM Serif Display';font-size:505.372px;fill:url(#_Linear57);">K</text>
        </g>
        <g transform="matrix(0.999861,-0.016647,0.016647,0.999861,-6.534517,28.044756)">
            <text x="1681.271px" y="406.525px" style="font-family:'DMSerifDisplay-Regular', 'DM Serif Display';font-size:505.372px;fill:url(#_Linear58);">U</text>
        </g>
        <g transform="matrix(0.987029,0.160544,-0.160544,0.987029,89.398244,-310.551263)">
            <text x="1966.518px" y="397.957px" style="font-family:'DMSerifDisplay-Regular', 'DM Serif Display';font-size:505.372px;fill:url(#_Linear59);">A</text>
        </g>
        <g transform="matrix(0.93243,0.361351,-0.361351,0.93243,317.566855,-797.007336)">
            <text x="2289.9px" y="450.638px" style="font-family:'DMSerifDisplay-Regular', 'DM Serif Display';font-size:505.372px;fill:url(#_Linear60);">N</text>
        </g>
        <g transform="matrix(0.867548,0.497353,-0.497353,0.867548,628.714343,-1212.46979)">
            <text x="2590.753px" y="574.168px" style="font-family:'DMSerifDisplay-Regular', 'DM Serif Display';font-size:505.372px;fill:url(#_Linear61);">I</text>
        </g>
    </g>
    <defs>
        <linearGradient id="_Linear1" x1="0" y1="0" x2="1" y2="0" gradientUnits="userSpaceOnUse" gradientTransform="matrix(1329.269478,11.660259,-11.660259,1329.269478,-158.327121,461.464914)"><stop offset="0" style="stop-color:rgb(54,128,98);stop-opacity:1"/><stop offset="1" style="stop-color:rgb(247,221,22);stop-opacity:1"/></linearGradient>
        <linearGradient id="_Linear2" x1="0" y1="0" x2="1" y2="0" gradientUnits="userSpaceOnUse" gradientTransform="matrix(1329.269478,11.660259,-11.660259,1329.269478,-158.327121,461.464914)"><stop offset="0" style="stop-color:rgb(54,128,98);stop-opacity:1"/><stop offset="1" style="stop-color:rgb(247,221,22);stop-opacity:1"/></linearGradient>
        <linearGradient id="_Linear3" x1="0" y1="0" x2="1" y2="0" gradientUnits="userSpaceOnUse" gradientTransform="matrix(1329.269478,11.660259,-11.660259,1329.269478,-158.327121,461.464914)"><stop offset="0" style="stop-color:rgb(54,128,98);stop-opacity:1"/><stop offset="1" style="stop-color:rgb(247,221,22);stop-opacity:1"/></linearGradient>
        <linearGradient id="_Linear4" x1="0" y1="0" x2="1" y2="0" gradientUnits="userSpaceOnUse" gradientTransform="matrix(1329.269478,11.660259,-11.660259,1329.269478,-158.327121,461.464914)"><stop offset="0" style="stop-color:rgb(54,128,98);stop-opacity:1"/><stop offset="1" style="stop-color:rgb(247,221,22);stop-opacity:1"/></linearGradient>
        <linearGradient id="_Linear5" x1="0" y1="0" x2="1" y2="0" gradientUnits="userSpaceOnUse" gradientTransform="matrix(1329.269478,11.660259,-11.660259,1329.269478,-158.327121,461.464914)"><stop offset="0" style="stop-color:rgb(54,128,98);stop-opacity:1"/><stop offset="1" style="stop-color:rgb(247,221,22);stop-opacity:1"/></linearGradient>
        <linearGradient id="_Linear6" x1="0" y1="0" x2="1" y2="0" gradientUnits="userSpaceOnUse" gradientTransform="matrix(1329.269478,11.660259,-11.660259,1329.269478,-158.327121,461.464914)"><stop offset="0" style="stop-color:rgb(54,128,98);stop-opacity:1"/><stop offset="1" style="stop-color:rgb(247,221,22);stop-opacity:1"/></linearGradient>
        <linearGradient id="_Linear7" x1="0" y1="0" x2="1" y2="0" gradientUnits="userSpaceOnUse" gradientTransform="matrix(1329.269478,11.660259,-11.660259,1329.269478,-158.327121,461.464914)"><stop offset="0" style="stop-color:rgb(54,128,98);stop-opacity:1"/><stop offset="1" style="stop-color:rgb(247,221,22);stop-opacity:1"/></linearGradient>
        <linearGradient id="_Linear8" x1="0" y1="0" x2="1" y2="0" gradientUnits="userSpaceOnUse" gradientTransform="matrix(1329.269478,11.660259,-11.660259,1329.269478,-158.327121,461.464914)"><stop offset="0" style="stop-color:rgb(54,128,98);stop-opacity:1"/><stop offset="1" style="stop-color:rgb(247,221,22);stop-opacity:1"/></linearGradient>
        <linearGradient id="_Linear9" x1="0" y1="0" x2="1" y2="0" gradientUnits="userSpaceOnUse" gradientTransform="matrix(1329.269478,11.660259,-11.660259,1329.269478,-158.327121,461.464914)"><stop offset="0" style="stop-color:rgb(54,128,98);stop-opacity:1"/><stop offset="1" style="stop-color:rgb(247,221,22);stop-opacity:1"/></linearGradient>
        <linearGradient id="_Linear10" x1="0" y1="0" x2="1" y2="0" gradientUnits="userSpaceOnUse" gradientTransform="matrix(1329.269478,11.660259,-11.660259,1329.269478,-158.327121,461.464914)"><stop offset="0" style="stop-color:rgb(54,128,98);stop-opacity:1"/><stop offset="1" style="stop-color:rgb(247,221,22);stop-opacity:1"/></linearGradient>
        <linearGradient id="_Linear11" x1="0" y1="0" x2="1" y2="0" gradientUnits="userSpaceOnUse" gradientTransform="matrix(1329.269478,11.660259,-11.660259,1329.269478,-158.327121,461.464914)"><stop offset="0" style="stop-color:rgb(54,128,98);stop-opacity:1"/><stop offset="1" style="stop-color:rgb(247,221,22);stop-opacity:1"/></linearGradient>
        <linearGradient id="_Linear12" x1="0" y1="0" x2="1" y2="0" gradientUnits="userSpaceOnUse" gradientTransform="matrix(1329.269478,11.660259,-11.660259,1329.269478,-158.327121,461.464914)"><stop offset="0" style="stop-color:rgb(54,128,98);stop-opacity:1"/><stop offset="1" style="stop-color:rgb(247,221,22);stop-opacity:1"/></linearGradient>
        <linearGradient id="_Linear13" x1="0" y1="0" x2="1" y2="0" gradientUnits="userSpaceOnUse" gradientTransform="matrix(1329.269478,11.660259,-11.660259,1329.269478,-158.327121,461.464914)"><stop offset="0" style="stop-color:rgb(54,128,98);stop-opacity:1"/><stop offset="1" style="stop-color:rgb(247,221,22);stop-opacity:1"/></linearGradient>
        <linearGradient id="_Linear14" x1="0" y1="0" x2="1" y2="0" gradientUnits="userSpaceOnUse" gradientTransform="matrix(1329.269478,11.660259,-11.660259,1329.269478,-158.327121,461.464914)"><stop offset="0" style="stop-color:rgb(54,128,98);stop-opacity:1"/><stop offset="1" style="stop-color:rgb(247,221,22);stop-opacity:1"/></linearGradient>
        <linearGradient id="_Linear15" x1="0" y1="0" x2="1" y2="0" gradientUnits="userSpaceOnUse" gradientTransform="matrix(1329.269478,11.660259,-11.660259,1329.269478,-158.327121,461.464914)"><stop offset="0" style="stop-color:rgb(54,128,98);stop-opacity:1"/><stop offset="1" style="stop-color:rgb(247,221,22);stop-opacity:1"/></linearGradient>
        <linearGradient id="_Linear16" x1="0" y1="0" x2="1" y2="0" gradientUnits="userSpaceOnUse" gradientTransform="matrix(1329.269478,11.660259,-11.660259,1329.269478,-158.327121,461.464914)"><stop offset="0" style="stop-color:rgb(54,128,98);stop-opacity:1"/><stop offset="1" style="stop-color:rgb(247,221,22);stop-opacity:1"/></linearGradient>
        <linearGradient id="_Linear17" x1="0" y1="0" x2="1" y2="0" gradientUnits="userSpaceOnUse" gradientTransform="matrix(1329.269478,11.660259,-11.660259,1329.269478,-158.327121,461.464914)"><stop offset="0" style="stop-color:rgb(54,128,98);stop-opacity:1"/><stop offset="1" style="stop-color:rgb(247,221,22);stop-opacity:1"/></linearGradient>
        <linearGradient id="_Linear18" x1="0" y1="0" x2="1" y2="0" gradientUnits="userSpaceOnUse" gradientTransform="matrix(1329.269478,11.660259,-11.660259,1329.269478,-158.327121,461.464914)"><stop offset="0" style="stop-color:rgb(54,128,98);stop-opacity:1"/><stop offset="1" style="stop-color:rgb(247,221,22);stop-opacity:1"/></linearGradient>
        <linearGradient id="_Linear19" x1="0" y1="0" x2="1" y2="0" gradientUnits="userSpaceOnUse" gradientTransform="matrix(1329.269478,11.660259,-11.660259,1329.269478,-158.327121,461.464914)"><stop offset="0" style="stop-color:rgb(54,128,98);stop-opacity:1"/><stop offset="1" style="stop-color:rgb(247,221,22);stop-opacity:1"/></linearGradient>
        <linearGradient id="_Linear20" x1="0" y1="0" x2="1" y2="0" gradientUnits="userSpaceOnUse" gradientTransform="matrix(1329.269478,11.660259,-11.660259,1329.269478,-158.327121,461.464914)"><stop offset="0" style="stop-color:rgb(54,128,98);stop-opacity:1"/><stop offset="1" style="stop-color:rgb(247,221,22);stop-opacity:1"/></linearGradient>
        <linearGradient id="_Linear21" x1="0" y1="0" x2="1" y2="0" gradientUnits="userSpaceOnUse" gradientTransform="matrix(1329.269478,11.660259,-11.660259,1329.269478,-158.327121,461.464914)"><stop offset="0" style="stop-color:rgb(54,128,98);stop-opacity:1"/><stop offset="1" style="stop-color:rgb(247,221,22);stop-opacity:1"/></linearGradient>
        <linearGradient id="_Linear22" x1="0" y1="0" x2="1" y2="0" gradientUnits="userSpaceOnUse" gradientTransform="matrix(1329.269478,11.660259,-11.660259,1329.269478,-158.327121,461.464914)"><stop offset="0" style="stop-color:rgb(54,128,98);stop-opacity:1"/><stop offset="1" style="stop-color:rgb(247,221,22);stop-opacity:1"/></linearGradient>
        <linearGradient id="_Linear23" x1="0" y1="0" x2="1" y2="0" gradientUnits="userSpaceOnUse" gradientTransform="matrix(1329.269478,11.660259,-11.660259,1329.269478,-158.327121,461.464914)"><stop offset="0" style="stop-color:rgb(54,128,98);stop-opacity:1"/><stop offset="1" style="stop-color:rgb(247,221,22);stop-opacity:1"/></linearGradient>
        <linearGradient id="_Linear24" x1="0" y1="0" x2="1" y2="0" gradientUnits="userSpaceOnUse" gradientTransform="matrix(1329.269478,11.660259,-11.660259,1329.269478,-158.327121,461.464914)"><stop offset="0" style="stop-color:rgb(54,128,98);stop-opacity:1"/><stop offset="1" style="stop-color:rgb(247,221,22);stop-opacity:1"/></linearGradient>
        <linearGradient id="_Linear25" x1="0" y1="0" x2="1" y2="0" gradientUnits="userSpaceOnUse" gradientTransform="matrix(1329.269478,11.660259,-11.660259,1329.269478,-158.327121,461.464914)"><stop offset="0" style="stop-color:rgb(54,128,98);stop-opacity:1"/><stop offset="1" style="stop-color:rgb(247,221,22);stop-opacity:1"/></linearGradient>
        <linearGradient id="_Linear26" x1="0" y1="0" x2="1" y2="0" gradientUnits="userSpaceOnUse" gradientTransform="matrix(1329.269478,11.660259,-11.660259,1329.269478,-158.327121,461.464914)"><stop offset="0" style="stop-color:rgb(54,128,98);stop-opacity:1"/><stop offset="1" style="stop-color:rgb(247,221,22);stop-opacity:1"/></linearGradient>
        <linearGradient id="_Linear27" x1="0" y1="0" x2="1" y2="0" gradientUnits="userSpaceOnUse" gradientTransform="matrix(1329.269478,11.660259,-11.660259,1329.269478,-158.327121,461.464914)"><stop offset="0" style="stop-color:rgb(54,128,98);stop-opacity:1"/><stop offset="1" style="stop-color:rgb(247,221,22);stop-opacity:1"/></linearGradient>
        <linearGradient id="_Linear28" x1="0" y1="0" x2="1" y2="0" gradientUnits="userSpaceOnUse" gradientTransform="matrix(1329.269478,11.660259,-11.660259,1329.269478,-158.327121,461.464914)"><stop offset="0" style="stop-color:rgb(54,128,98);stop-opacity:1"/><stop offset="1" style="stop-color:rgb(247,221,22);stop-opacity:1"/></linearGradient>
        <linearGradient id="_Linear29" x1="0" y1="0" x2="1" y2="0" gradientUnits="userSpaceOnUse" gradientTransform="matrix(1329.269478,11.660259,-11.660259,1329.269478,-158.327121,461.464914)"><stop offset="0" style="stop-color:rgb(54,128,98);stop-opacity:1"/><stop offset="1" style="stop-color:rgb(247,221,22);stop-opacity:1"/></linearGradient>
        <linearGradient id="_Linear30" x1="0" y1="0" x2="1" y2="0" gradientUnits="userSpaceOnUse" gradientTransform="matrix(1329.269478,11.660259,-11.660259,1329.269478,-158.327121,461.464914)"><stop offset="0" style="stop-color:rgb(54,128,98);stop-opacity:1"/><stop offset="1" style="stop-color:rgb(247,221,22);stop-opacity:1"/></linearGradient>
        <linearGradient id="_Linear31" x1="0" y1="0" x2="1" y2="0" gradientUnits="userSpaceOnUse" gradientTransform="matrix(1329.269478,11.660259,-11.660259,1329.269478,-158.327121,461.464914)"><stop offset="0" style="stop-color:rgb(54,128,98);stop-opacity:1"/><stop offset="1" style="stop-color:rgb(247,221,22);stop-opacity:1"/></linearGradient>
        <linearGradient id="_Linear32" x1="0" y1="0" x2="1" y2="0" gradientUnits="userSpaceOnUse" gradientTransform="matrix(2444.017308,-1678.705579,1678.705579,2444.017308,-239.958303,2501.662104)"><stop offset="0" style="stop-color:rgb(54,128,98);stop-opacity:1"/><stop offset="1" style="stop-color:rgb(247,221,22);stop-opacity:1"/></linearGradient>
        <linearGradient id="_Linear33" x1="0" y1="0" x2="1" y2="0" gradientUnits="userSpaceOnUse" gradientTransform="matrix(2533.20769,-1540.821801,1540.821801,2533.20769,-222.886981,2489.782027)"><stop offset="0" style="stop-color:rgb(54,128,98);stop-opacity:1"/><stop offset="1" style="stop-color:rgb(247,221,22);stop-opacity:1"/></linearGradient>
        <linearGradient id="_Linear34" x1="0" y1="0" x2="1" y2="0" gradientUnits="userSpaceOnUse" gradientTransform="matrix(2610.780155,-1405.382513,1405.382513,2610.780155,-199.731105,2468.982705)"><stop offset="0" style="stop-color:rgb(54,128,98);stop-opacity:1"/><stop offset="1" style="stop-color:rgb(247,221,22);stop-opacity:1"/></linearGradient>
        <linearGradient id="_Linear35" x1="0" y1="0" x2="1" y2="0" gradientUnits="userSpaceOnUse" gradientTransform="matrix(2683.173442,-1261.686691,1261.686691,2683.173442,-169.077246,2437.608555)"><stop offset="0" style="stop-color:rgb(54,128,98);stop-opacity:1"/><stop offset="1" style="stop-color:rgb(247,221,22);stop-opacity:1"/></linearGradient>
        <linearGradient id="_Linear36" x1="0" y1="0" x2="1" y2="0" gradientUnits="userSpaceOnUse" gradientTransform="matrix(2756.081697,-1093.291682,1093.291682,2756.081697,-127.289336,2395.098625)"><stop offset="0" style="stop-color:rgb(54,128,98);stop-opacity:1"/><stop offset="1" style="stop-color:rgb(247,221,22);stop-opacity:1"/></linearGradient>
        <linearGradient id="_Linear37" x1="0" y1="0" x2="1" y2="0" gradientUnits="userSpaceOnUse" gradientTransform="matrix(2818.861759,-919.397306,919.397306,2818.861759,-78.192916,2347.053927)"><stop offset="0" style="stop-color:rgb(54,128,98);stop-opacity:1"/><stop offset="1" style="stop-color:rgb(247,221,22);stop-opacity:1"/></linearGradient>
        <linearGradient id="_Linear38" x1="0" y1="0" x2="1" y2="0" gradientUnits="userSpaceOnUse" gradientTransform="matrix(2867.539213,-753.984011,753.984011,2867.539213,-25.839438,2296.483948)"><stop offset="0" style="stop-color:rgb(54,128,98);stop-opacity:1"/><stop offset="1" style="stop-color:rgb(247,221,22);stop-opacity:1"/></linearGradient>
        <linearGradient id="_Linear39" x1="0" y1="0" x2="1" y2="0" gradientUnits="userSpaceOnUse" gradientTransform="matrix(2904.897204,-594.007794,594.007794,2904.897204,30.319101,2239.092761)"><stop offset="0" style="stop-color:rgb(54,128,98);stop-opacity:1"/><stop offset="1" style="stop-color:rgb(247,221,22);stop-opacity:1"/></linearGradient>
        <linearGradient id="_Linear40" x1="0" y1="0" x2="1" y2="0" gradientUnits="userSpaceOnUse" gradientTransform="matrix(2935.392839,-418.02142,418.02142,2935.392839,97.527732,2170.750603)"><stop offset="0" style="stop-color:rgb(54,128,98);stop-opacity:1"/><stop offset="1" style="stop-color:rgb(247,221,22);stop-opacity:1"/></linearGradient>
        <linearGradient id="_Linear41" x1="0" y1="0" x2="1" y2="0" gradientUnits="userSpaceOnUse" gradientTransform="matrix(2953.784676,-257.738459,257.738459,2953.784676,163.619066,2103.524749)"><stop offset="0" style="stop-color:rgb(54,128,98);stop-opacity:1"/><stop offset="1" style="stop-color:rgb(247,221,22);stop-opacity:1"/></linearGradient>
        <linearGradient id="_Linear42" x1="0" y1="0" x2="1" y2="0" gradientUnits="userSpaceOnUse" gradientTransform="matrix(2962.325767,-126.091544,126.091544,2962.325767,221.298779,2046.22497)"><stop offset="0" style="stop-color:rgb(54,128,98);stop-opacity:1"/><stop offset="1" style="stop-color:rgb(247,221,22);stop-opacity:1"/></linearGradient>
        <linearGradient id="_Linear43" x1="0" y1="0" x2="1" y2="0" gradientUnits="userSpaceOnUse" gradientTransform="matrix(2964.312959,64.200512,-64.200512,2964.312959,310.208642,1953.84923)"><stop offset="0" style="stop-color:rgb(54,128,98);stop-opacity:1"/><stop offset="1" style="stop-color:rgb(247,221,22);stop-opacity:1"/></linearGradient>
        <linearGradient id="_Linear44" x1="0" y1="0" x2="1" y2="0" gradientUnits="userSpaceOnUse" gradientTransform="matrix(2956.108833,229.550846,-229.550846,2956.108833,392.637271,1868.567404)"><stop offset="0" style="stop-color:rgb(54,128,98);stop-opacity:1"/><stop offset="1" style="stop-color:rgb(247,221,22);stop-opacity:1"/></linearGradient>
        <linearGradient id="_Linear45" x1="0" y1="0" x2="1" y2="0" gradientUnits="userSpaceOnUse" gradientTransform="matrix(2940.04891,383.908108,-383.908108,2940.04891,473.971616,1783.98662)"><stop offset="0" style="stop-color:rgb(54,128,98);stop-opacity:1"/><stop offset="1" style="stop-color:rgb(247,221,22);stop-opacity:1"/></linearGradient>
        <linearGradient id="_Linear46" x1="0" y1="0" x2="1" y2="0" gradientUnits="userSpaceOnUse" gradientTransform="matrix(2915.826238,537.801429,-537.801429,2915.826238,559.418616,1695.78151)"><stop offset="0" style="stop-color:rgb(54,128,98);stop-opacity:1"/><stop offset="1" style="stop-color:rgb(247,221,22);stop-opacity:1"/></linearGradient>
        <linearGradient id="_Linear47" x1="0" y1="0" x2="1" y2="0" gradientUnits="userSpaceOnUse" gradientTransform="matrix(2891.227337,657.326032,-657.326032,2891.227337,628.339837,1619.423497)"><stop offset="0" style="stop-color:rgb(54,128,98);stop-opacity:1"/><stop offset="1" style="stop-color:rgb(247,221,22);stop-opacity:1"/></linearGradient>
        <linearGradient id="_Linear48" x1="0" y1="0" x2="1" y2="0" gradientUnits="userSpaceOnUse" gradientTransform="matrix(2857.903081,789.723371,-789.723371,2857.903081,709.029758,1541.850138)"><stop offset="0" style="stop-color:rgb(54,128,98);stop-opacity:1"/><stop offset="1" style="stop-color:rgb(247,221,22);stop-opacity:1"/></linearGradient>
        <linearGradient id="_Linear49" x1="0" y1="0" x2="1" y2="0" gradientUnits="userSpaceOnUse" gradientTransform="matrix(2802.86049,967.081228,-967.081228,2802.86049,821.840338,1424.967158)"><stop offset="0" style="stop-color:rgb(54,128,98);stop-opacity:1"/><stop offset="1" style="stop-color:rgb(247,221,22);stop-opacity:1"/></linearGradient>
        <linearGradient id="_Linear50" x1="0" y1="0" x2="1" y2="0" gradientUnits="userSpaceOnUse" gradientTransform="matrix(2756.419563,1092.439571,-1092.439571,2756.419563,903.627481,1327.79745)"><stop offset="0" style="stop-color:rgb(54,128,98);stop-opacity:1"/><stop offset="1" style="stop-color:rgb(247,221,22);stop-opacity:1"/></linearGradient>
        <linearGradient id="_Linear51" x1="0" y1="0" x2="1" y2="0" gradientUnits="userSpaceOnUse" gradientTransform="matrix(2682.915814,1262.234431,-1262.234431,2682.915814,1024.322831,1213.581849)"><stop offset="0" style="stop-color:rgb(54,128,98);stop-opacity:1"/><stop offset="1" style="stop-color:rgb(247,221,22);stop-opacity:1"/></linearGradient>
        <linearGradient id="_Linear52" x1="0" y1="0" x2="1" y2="0" gradientUnits="userSpaceOnUse" gradientTransform="matrix(2622.249777,1383.863842,-1383.863842,2622.249777,1110.998355,1109.181453)"><stop offset="0" style="stop-color:rgb(54,128,98);stop-opacity:1"/><stop offset="1" style="stop-color:rgb(247,221,22);stop-opacity:1"/></linearGradient>
        <linearGradient id="_Linear53" x1="0" y1="0" x2="1" y2="0" gradientUnits="userSpaceOnUse" gradientTransform="matrix(2557.555105,1500.061636,-1500.061636,2557.555105,1202.593341,1027.227824)"><stop offset="0" style="stop-color:rgb(54,128,98);stop-opacity:1"/><stop offset="1" style="stop-color:rgb(247,221,22);stop-opacity:1"/></linearGradient>
        <linearGradient id="_Linear54" x1="0" y1="0" x2="1" y2="0" gradientUnits="userSpaceOnUse" gradientTransform="matrix(2466.920982,1644.862881,-1644.862881,2466.920982,1317.698355,902.439382)"><stop offset="0" style="stop-color:rgb(54,128,98);stop-opacity:1"/><stop offset="1" style="stop-color:rgb(247,221,22);stop-opacity:1"/></linearGradient>
        <linearGradient id="_Linear55" x1="0" y1="0" x2="1" y2="0" gradientUnits="userSpaceOnUse" gradientTransform="matrix(2585.998953,1450.476625,-1450.476625,2585.998953,81.592149,1106.783638)"><stop offset="0" style="stop-color:rgb(54,128,98);stop-opacity:1"/><stop offset="1" style="stop-color:rgb(247,221,22);stop-opacity:1"/></linearGradient>
        <linearGradient id="_Linear56" x1="0" y1="0" x2="1" y2="0" gradientUnits="userSpaceOnUse" gradientTransform="matrix(2752.625042,1101.965699,-1101.965699,2752.625042,118.414853,1129.783555)"><stop offset="0" style="stop-color:rgb(54,128,98);stop-opacity:1"/><stop offset="1" style="stop-color:rgb(247,221,22);stop-opacity:1"/></linearGradient>
        <linearGradient id="_Linear57" x1="0" y1="0" x2="1" y2="0" gradientUnits="userSpaceOnUse" gradientTransform="matrix(2890.324668,661.283857,-661.283857,2890.324668,213.504425,1263.279423)"><stop offset="0" style="stop-color:rgb(54,128,98);stop-opacity:1"/><stop offset="1" style="stop-color:rgb(247,221,22);stop-opacity:1"/></linearGradient>
        <linearGradient id="_Linear58" x1="0" y1="0" x2="1" y2="0" gradientUnits="userSpaceOnUse" gradientTransform="matrix(2964.050217,75.36136,-75.36136,2964.050217,391.200284,1471.091208)"><stop offset="0" style="stop-color:rgb(54,128,98);stop-opacity:1"/><stop offset="1" style="stop-color:rgb(247,221,22);stop-opacity:1"/></linearGradient>
        <linearGradient id="_Linear59" x1="0" y1="0" x2="1" y2="0" gradientUnits="userSpaceOnUse" gradientTransform="matrix(2930.610707,-450.326445,450.326445,2930.610707,605.012621,1728.25751)"><stop offset="0" style="stop-color:rgb(54,128,98);stop-opacity:1"/><stop offset="1" style="stop-color:rgb(247,221,22);stop-opacity:1"/></linearGradient>
        <linearGradient id="_Linear60" x1="0" y1="0" x2="1" y2="0" gradientUnits="userSpaceOnUse" gradientTransform="matrix(2773.954108,-1047.115864,1047.115864,2773.954108,912.63519,2101.65454)"><stop offset="0" style="stop-color:rgb(54,128,98);stop-opacity:1"/><stop offset="1" style="stop-color:rgb(247,221,22);stop-opacity:1"/></linearGradient>
        <linearGradient id="_Linear61" x1="0" y1="0" x2="1" y2="0" gradientUnits="userSpaceOnUse" gradientTransform="matrix(2585.123279,-1452.036727,1452.036727,2585.123279,1154.760609,2455.84715)"><stop offset="0" style="stop-color:rgb(54,128,98);stop-opacity:1"/><stop offset="1" style="stop-color:rgb(247,221,22);stop-opacity:1"/></linearGradient>
    </defs>
</svg>
