<?xml version="1.0" encoding="UTF-8" standalone="no"?>
<!DOCTYPE svg PUBLIC "-//W3C//DTD SVG 1.1//EN" "http://www.w3.org/Graphics/SVG/1.1/DTD/svg11.dtd">
<svg width="100%" height="100%" viewBox="0 0 397 378" version="1.1" xmlns="http://www.w3.org/2000/svg" xmlns:xlink="http://www.w3.org/1999/xlink" xml:space="preserve" xmlns:serif="http://www.serif.com/" style="fill-rule:evenodd;clip-rule:evenodd;stroke-linejoin:round;stroke-miterlimit:2;">
    <g id="Fondo">
        <path d="M376.034,147.5C376.034,208.744 379.651,225.84 350.251,251.191C337.19,262.454 319.336,264.825 316.433,265.211C313.625,265.584 314.094,266.989 314.094,304.5C314.094,343.493 313.829,344.28 315.451,344.687C317.529,345.208 374.887,343.951 375.634,345.402C375.955,346.025 376.922,355.401 374.604,355.918C373.929,356.069 48.607,355.846 41.505,356.034C40.719,356.055 37.95,356.128 38.976,346.537C39.198,344.457 40.347,344.762 88.5,344.762C172.681,344.762 173.325,344.923 173.754,343.599C173.982,342.896 173.95,284.035 173.771,283.415C172.42,278.753 159.688,287.968 125.832,265.021C83.229,236.145 71.039,157.078 130.223,118.064C175.457,88.245 249.809,101.982 267.685,176.455C272.291,195.644 266.503,215.286 265.55,218.518C259.716,238.317 239.374,273.323 194.442,281.252C186.843,282.594 185.122,281.587 185.072,285.498C185.012,290.147 184.358,341.013 185.203,343.62C185.61,344.877 186.217,344.768 295.5,344.762C300.541,344.762 302.976,346.608 302.981,341.504C302.993,328.867 303.125,184.217 303.035,183.546C302.494,179.523 275.992,184.023 275.088,180.642C274.098,176.934 274.823,173.174 274.945,172.537C275.465,169.841 280.645,170.876 300.505,170.744C303.625,170.723 302.981,168.992 302.981,143.5C302.981,115.776 303.353,114.675 301.485,114.592C293.836,114.25 275.93,115.373 275.224,113.659C275.03,113.189 274.105,103.217 276.401,103.077C284.568,102.578 302.315,104.34 302.932,101.611C303.511,99.049 301.638,81.783 304.365,81.042C305.14,80.831 314.012,78.42 314.093,83.505C314.278,94.975 313.629,135.515 314.521,136.481C316.135,138.231 341.858,135.126 342.163,138.553C342.996,147.931 341.235,148.046 340.461,148.097C333.968,148.522 314.6,146.926 314.173,149.4C314.018,150.297 314.104,202.467 314.119,202.564C314.616,205.688 330.53,203.792 340.535,204.279C342.659,204.383 344.131,215.691 339.503,215.711C316.559,215.811 314.107,214.621 314.094,218.493C314.085,221.22 313.987,250.882 314.128,252.581C314.567,257.841 364.539,246.225 364.82,197.501C365.507,78.159 364.84,76.428 361.076,66.656C340.636,13.593 259.078,18.542 252.41,83.494C251.889,88.562 249.622,86.43 244.5,86.44C240.218,86.447 240.904,84.482 241.939,75.556C247.208,30.107 312.601,-5.306 357.173,39.823C379.327,62.252 375.965,87.288 375.965,134.5C375.965,141.042 375.97,140.982 376.034,147.5ZM170.491,270.959C175.577,271.08 173.868,268.629 173.887,263.5C173.905,258.852 174.108,206.486 173.749,205.401C172.666,202.125 140.319,206.703 140.091,202.57C140.036,201.588 138.695,193.141 142.486,193.109C172.14,192.855 173.702,194.166 173.849,191.57C174.077,187.562 172.894,176.351 175.445,176.209C176.205,176.167 184.531,175.703 184.889,177.342C185.481,180.06 184.53,219.472 185.456,220.535C187.14,222.469 217.847,219.361 218.693,222.443C221.392,232.281 216.332,232.34 215.499,232.35C187.36,232.678 185.372,230.892 185.081,234.456C184.736,238.683 185.042,265.786 185.072,268.51C185.115,272.327 189.316,271.221 197.422,269.217C276.767,249.594 281.915,134.124 190.557,115.181C179.568,112.902 126.101,112.809 105.384,166.453C92.315,200.293 106.178,255.506 161.557,269.322C167.405,270.781 167.416,270.435 170.491,270.959Z" style="fill:rgb(46,100,23);"/>
        <path d="M97.5,18.966C153.62,22.308 155.181,93.273 110.593,106.81C63.745,121.033 30.732,59.869 69.618,28.646C82.004,18.701 95.928,19.054 97.5,18.966ZM131.041,66.493C130.987,64.592 130.61,51.474 124.223,43.715C97.762,11.57 53.207,42.605 65.787,75.395C79.026,109.901 128.045,101.346 131.041,66.493Z" style="fill:rgb(46,100,23);"/>
        <path d="M38.966,306.5C39.07,301.909 37.965,299.995 42.5,300.035C43.165,300.041 159.66,300.022 160.557,300.047C163.598,300.134 162.541,308.932 162.513,309.502C162.436,311.079 156.075,311.082 155.5,311.082C146.38,311.087 44.955,311.141 41.505,311.082C38.366,311.028 39.351,309.688 38.966,306.5Z" style="fill:rgb(46,100,23);"/>
        <path d="M292.034,306.5C291.649,309.688 292.634,311.028 289.495,311.082C282.217,311.207 233.995,312.033 198.517,311.08C194.933,310.984 194.941,300.099 198.462,300.04C199.091,300.03 288.165,300.037 288.5,300.035C293.023,300.005 291.93,301.906 292.034,306.5Z" style="fill:rgb(46,100,23);"/>
        <path d="M376.034,306.5C375.649,309.688 376.634,311.028 373.495,311.082C369.744,311.146 328.75,311.849 326.609,311.016C324.747,310.291 324.014,300.119 327.453,300.043C331.297,299.958 373.988,299.014 375.517,300.483C375.906,300.857 376.023,306.017 376.034,306.5Z" style="fill:rgb(46,100,23);"/>
    </g>
</svg>
