<?xml version="1.0" encoding="UTF-8" standalone="no"?>
<!DOCTYPE svg PUBLIC "-//W3C//DTD SVG 1.1//EN" "http://www.w3.org/Graphics/SVG/1.1/DTD/svg11.dtd">
<svg width="100%" height="100%" viewBox="0 0 406 348" version="1.1" xmlns="http://www.w3.org/2000/svg" xmlns:xlink="http://www.w3.org/1999/xlink" xml:space="preserve" xmlns:serif="http://www.serif.com/" style="fill-rule:evenodd;clip-rule:evenodd;stroke-linejoin:round;stroke-miterlimit:2;">
    <g id="Fondo">
        <path d="M87.065,128.496C87.196,126.306 88.034,112.246 102.701,105.958C107.46,103.917 107.684,104.148 307.5,104.148C370.125,104.148 374.476,102.135 383.4,116.561C392.018,130.493 382.089,162.554 380.18,167.379C361.291,215.11 333.011,221.548 332.931,226.476C332.911,227.662 383.21,311.528 385.363,315.574C392.835,329.61 376.311,341.356 365.705,332.251C365.245,331.856 364.771,332.123 314.94,248.241C309.425,238.957 309.743,236.638 304.362,238.013C285.691,242.782 285.496,242.218 219.5,242.218C170.31,242.218 170.723,236.957 166.488,237.397C164.175,237.636 126.614,303.542 112.121,327.273C102.113,343.66 85.08,332.98 86.894,320.56C87.757,314.652 88.836,314.991 123.974,255.78C140.705,227.588 141.021,227.647 140.989,226.492C140.85,221.481 89.043,201.944 87.065,128.496ZM95.058,144.559C105.576,204.823 152.393,235.059 201.5,235.471C286.126,236.182 292.781,234.278 300.391,232.101C308.979,229.644 364.12,213.871 377.699,151.545C381.271,135.15 379.902,134.583 378.552,134.281C378.135,134.188 167.754,134.258 101.5,134.238C100.907,134.238 94.491,134.236 94.181,135.393C93.943,136.28 94.103,136.271 95.058,144.559ZM95.136,122.362C94.739,123.658 92.465,127.706 96.493,127.725C118.974,127.835 248.836,128.467 377.509,127.727C383.719,127.692 375.858,112.007 364.453,110.895C355.391,110.012 134.496,110.621 114.5,110.676C102.64,110.709 98.789,114.977 95.136,122.362ZM363.274,316.634C364.727,319.129 371.91,335.069 379.238,326.295C382.66,322.198 380.765,320.973 348.933,267.246C328.315,232.447 327.205,228.824 324.683,229.96C317.08,233.386 314.775,234.539 315.752,236.385C315.814,236.501 363.002,316.166 363.274,316.634ZM110.274,317.365C115.44,308.495 158.489,236.404 158.532,235.502C158.584,234.415 154.123,232.301 153.696,232.098C149.474,230.097 148.357,227.712 145.968,231.781C110.245,292.622 109.975,292.432 106.921,297.75C94.148,319.993 91.263,322.122 94.753,326.303C102.133,335.142 109.523,318.658 110.274,317.365Z" style="fill:rgb(47,101,24);"/>
        <path d="M179.933,176.434C179.81,174.446 178.818,158.36 179.723,151.531C180.241,147.623 181.921,147.984 204.506,148.115C214.983,148.175 203.916,164.821 213.578,170.353C216.559,172.06 216.823,171.358 256.497,171.19C266.928,171.146 264.653,157.291 264.696,153.501C264.761,147.664 266.712,148.112 272.5,148.109C290.178,148.097 294.238,146.592 294.366,153.501C294.805,177.207 293.231,180.285 292.178,182.346C284.362,197.632 272.24,195.302 239.5,195.302C198.774,195.302 185.411,198.287 179.933,176.434ZM202.981,166.412C202.259,156.602 202.932,156.527 202.417,155.54C201.732,154.227 186.464,153.155 186.289,156.468C184.901,182.857 191.182,184.031 192.708,185.237C197.368,188.92 197.962,188.489 264.5,188.477C283.805,188.473 288.833,185.453 287.718,156.466C287.63,154.2 283.285,154.325 273.503,154.545C267.591,154.678 278.41,177.908 254.5,177.918C211.423,177.936 207.172,179.785 202.981,166.412Z" style="fill:rgb(47,101,24);"/>
        <path d="M240.32,56.701C243.454,60.008 245.263,61.149 240.562,65.567C236.632,69.259 247.072,71.116 242.174,76.193C241.906,76.471 238.974,79.509 239.711,80.352C242.233,83.238 246.743,84.254 240.268,90.246C239.349,91.097 235.288,95.745 232.462,94.578C226.615,92.163 235.717,86.303 234.287,84.645C231.175,81.036 229.904,81.338 230.618,78.536C231.014,76.982 235.47,74.029 234.313,72.62C231.238,68.873 228.913,69.119 230.852,65.683C231.283,64.918 235.809,61.65 234.037,59.922C225.664,51.756 234.012,51.991 234.615,52.148C235.732,52.439 235.595,52.637 240.32,56.701Z" style="fill:rgb(46,100,23);"/>
        <path d="M222.723,57.253C228.411,63.243 222.584,63.527 221.459,66.476C220.346,69.394 229.069,71.703 223.092,77.076C218.342,81.347 226.537,81.8 225.158,86.405C224.327,89.18 214.27,98.868 212.398,92.532C211.324,88.895 217.733,86.55 216.169,84.715C212.858,80.83 211.616,81.085 212.406,78.469C212.802,77.159 217.237,73.966 216.197,72.684C216.065,72.522 209.874,68.176 213.525,64.524C215.845,62.203 217.735,61.968 215.394,59.604C212.222,56.401 210.19,55.642 213.593,52.615C214.778,51.56 216.384,52.136 216.613,52.218C217.601,52.573 217.504,52.718 222.723,57.253Z" style="fill:rgb(46,100,23);"/>
        <path d="M259.734,76.741C259.65,76.85 256.142,78.764 258.759,81.221C260.723,83.064 265.463,85.666 254.16,94.055C250.471,96.793 246.903,91.885 249.886,88.861C252.056,86.66 254.388,86.884 252.393,84.576C252.282,84.447 247.194,81.261 249.379,77.415C249.479,77.241 252.729,74.273 252.744,73.507C252.764,72.506 246.485,67.965 249.74,64.714C252.123,62.335 254.535,62.289 252.133,59.84C252.119,59.825 247.419,56.876 249.304,53.372C251.646,49.016 265.382,59.101 260.238,64.243C259.975,64.505 257.122,67.357 257.876,68.229C259.985,70.669 264.244,71.936 259.734,76.741Z" style="fill:rgb(46,100,23);"/>
        <path d="M194.105,67.544C194.669,64.775 194.847,64.865 197.048,63C199.437,60.975 198.021,60.461 195.741,58.249C191.391,54.028 196.519,50.529 199.341,52.725C206.296,58.136 210.215,59.663 203.809,65.812C201.073,68.438 208.336,70.535 206.805,74.63C205.574,77.921 200.691,78.192 205.098,81.948C211.527,87.425 198.441,95.32 196.424,94.72C190.101,92.84 198.923,86.272 198.043,84.785C195.981,81.299 191.402,80.501 197.164,75.14C200.353,72.173 195.919,72.317 194.105,67.544Z" style="fill:rgb(46,100,23);"/>
        <path d="M279.917,85.507C278.33,90.912 268.785,98.062 267.112,92.632C265.828,88.463 273.261,86.665 270.088,83.936C262.846,77.707 270.853,76.875 270.929,73.516C270.98,71.213 263.538,68.658 268.797,63.827C273.378,59.62 267.464,59.436 266.917,55.476C266.823,54.8 266.973,47.959 275.445,55.561C280.214,59.84 281.298,61.245 276.738,65.745C272.965,69.468 283.555,71.132 278.351,76.351C276.103,78.605 274.553,79.007 276.84,81.139C278.878,83.039 279.15,82.853 279.917,85.507Z" style="fill:rgb(47,100,24);"/>
        <path d="M109.006,146.577C113.458,168.383 121.392,175.315 113.479,174.799C108.644,174.484 97.654,140.693 103.558,138.646C103.763,138.575 105.143,138.097 106.27,138.876C108.315,140.292 108.895,146.085 109.006,146.577Z" style="fill:rgb(46,100,23);"/>
        <path d="M117.146,183.62C117.208,170.055 133.459,193.413 133.12,195.459C131.551,204.916 119.3,187.935 117.146,183.62Z" style="fill:rgb(46,100,23);"/>
    </g>
</svg>
